%TF.GenerationSoftware,KiCad,Pcbnew,9.0.7-9.0.7~ubuntu22.04.1*%
%TF.CreationDate,2026-04-10T14:26:46+05:30*%
%TF.ProjectId,monodeck,6d6f6e6f-6465-4636-9b2e-6b696361645f,rev?*%
%TF.SameCoordinates,Original*%
%TF.FileFunction,Copper,L2,Bot*%
%TF.FilePolarity,Positive*%
%FSLAX46Y46*%
G04 Gerber Fmt 4.6, Leading zero omitted, Abs format (unit mm)*
G04 Created by KiCad (PCBNEW 9.0.7-9.0.7~ubuntu22.04.1) date 2026-04-10 14:26:46*
%MOMM*%
%LPD*%
G01*
G04 APERTURE LIST*
G04 Aperture macros list*
%AMRoundRect*
0 Rectangle with rounded corners*
0 $1 Rounding radius*
0 $2 $3 $4 $5 $6 $7 $8 $9 X,Y pos of 4 corners*
0 Add a 4 corners polygon primitive as box body*
4,1,4,$2,$3,$4,$5,$6,$7,$8,$9,$2,$3,0*
0 Add four circle primitives for the rounded corners*
1,1,$1+$1,$2,$3*
1,1,$1+$1,$4,$5*
1,1,$1+$1,$6,$7*
1,1,$1+$1,$8,$9*
0 Add four rect primitives between the rounded corners*
20,1,$1+$1,$2,$3,$4,$5,0*
20,1,$1+$1,$4,$5,$6,$7,0*
20,1,$1+$1,$6,$7,$8,$9,0*
20,1,$1+$1,$8,$9,$2,$3,0*%
G04 Aperture macros list end*
%TA.AperFunction,ComponentPad*%
%ADD10R,1.700000X1.700000*%
%TD*%
%TA.AperFunction,ComponentPad*%
%ADD11C,1.700000*%
%TD*%
%TA.AperFunction,ComponentPad*%
%ADD12C,2.000000*%
%TD*%
%TA.AperFunction,ComponentPad*%
%ADD13R,2.775000X2.775000*%
%TD*%
%TA.AperFunction,ComponentPad*%
%ADD14C,2.775000*%
%TD*%
%TA.AperFunction,ComponentPad*%
%ADD15RoundRect,0.250000X-0.350000X-0.625000X0.350000X-0.625000X0.350000X0.625000X-0.350000X0.625000X0*%
%TD*%
%TA.AperFunction,ComponentPad*%
%ADD16O,1.200000X1.750000*%
%TD*%
%TA.AperFunction,Conductor*%
%ADD17C,1.000000*%
%TD*%
%TA.AperFunction,Conductor*%
%ADD18C,0.700000*%
%TD*%
G04 APERTURE END LIST*
D10*
%TO.P,OLED1,1,Pin_1*%
%TO.N,/VCC*%
X163450000Y-55000000D03*
D11*
%TO.P,OLED1,2,Pin_2*%
%TO.N,GND*%
X165990000Y-55000000D03*
%TO.P,OLED1,3,Pin_3*%
%TO.N,/GPIO9*%
X168530000Y-55000000D03*
%TO.P,OLED1,4,Pin_4*%
%TO.N,/GPIO8*%
X171070000Y-55000000D03*
%TD*%
D12*
%TO.P,U1,1,Vin+*%
%TO.N,unconnected-(U1-Vin+-Pad1)*%
X197350000Y-102650000D03*
%TO.P,U1,2,Vin-*%
%TO.N,unconnected-(U1-Vin--Pad2)*%
X183350000Y-102650000D03*
%TO.P,U1,3,Vout+*%
%TO.N,Net-(U1-Vout+)*%
X197350000Y-79650000D03*
%TO.P,U1,4,Vout-*%
%TO.N,GND*%
X183350000Y-79650000D03*
%TO.P,U1,5,B+*%
%TO.N,Net-(BAT1-Pin_1)*%
X194810000Y-79650000D03*
%TO.P,U1,6,B-*%
%TO.N,GND*%
X185890000Y-79650000D03*
%TD*%
D13*
%TO.P,PWR1,1*%
%TO.N,Net-(U1-Vout+)*%
X184489500Y-65509250D03*
D14*
%TO.P,PWR1,1A*%
%TO.N,/V+*%
X184489500Y-58509250D03*
%TD*%
D15*
%TO.P,BAT1,1,Pin_1*%
%TO.N,Net-(BAT1-Pin_1)*%
X140500000Y-61550000D03*
D16*
%TO.P,BAT1,2,Pin_2*%
%TO.N,GND*%
X142500000Y-61550000D03*
%TD*%
D10*
%TO.P,J2,1,GP16*%
%TO.N,unconnected-(J2-GP16-Pad1)*%
X176950000Y-54890000D03*
D11*
%TO.P,J2,2,GP17*%
%TO.N,unconnected-(J2-GP17-Pad2)*%
X176950000Y-57430000D03*
%TO.P,J2,3,GND*%
%TO.N,GND*%
X176950000Y-59970000D03*
%TO.P,J2,4,GP18*%
%TO.N,unconnected-(J2-GP18-Pad4)*%
X176950000Y-62510000D03*
%TO.P,J2,5,GP19*%
%TO.N,unconnected-(J2-GP19-Pad5)*%
X176950000Y-65050000D03*
%TO.P,J2,6,GP20*%
%TO.N,/GPIO20*%
X176950000Y-67590000D03*
%TO.P,J2,7,GP21*%
%TO.N,/GPIO21*%
X176950000Y-70130000D03*
%TO.P,J2,8,GND*%
%TO.N,GND*%
X176950000Y-72670000D03*
%TO.P,J2,9,GP22*%
%TO.N,unconnected-(J2-GP22-Pad9)*%
X176950000Y-75210000D03*
%TO.P,J2,10,RUN*%
%TO.N,unconnected-(J2-RUN-Pad10)*%
X176950000Y-77750000D03*
%TO.P,J2,11,GP26*%
%TO.N,unconnected-(J2-GP26-Pad11)*%
X176950000Y-80290000D03*
%TO.P,J2,12,GP27*%
%TO.N,unconnected-(J2-GP27-Pad12)*%
X176950000Y-82830000D03*
%TO.P,J2,13,GND*%
%TO.N,unconnected-(J2-GND-Pad13)*%
X176950000Y-85370000D03*
%TO.P,J2,14,GP28*%
%TO.N,unconnected-(J2-GP28-Pad14)*%
X176950000Y-87910000D03*
%TO.P,J2,15,ADC_VREF*%
%TO.N,unconnected-(J2-ADC_VREF-Pad15)*%
X176950000Y-90450000D03*
%TO.P,J2,16,3V3_OUT*%
%TO.N,/VCC*%
X176950000Y-92990000D03*
%TO.P,J2,17,3V3_EN*%
%TO.N,unconnected-(J2-3V3_EN-Pad17)*%
X176950000Y-95530000D03*
%TO.P,J2,18,GND*%
%TO.N,GND*%
X176950000Y-98070000D03*
%TO.P,J2,19,VSYS*%
%TO.N,unconnected-(J2-VSYS-Pad19)*%
X176950000Y-100610000D03*
%TO.P,J2,20,VBUS*%
%TO.N,/V+*%
X176950000Y-103150000D03*
%TD*%
D10*
%TO.P,J1,1,GP0*%
%TO.N,unconnected-(J1-GP0-Pad1)*%
X157500000Y-103100000D03*
D11*
%TO.P,J1,2,GP1*%
%TO.N,unconnected-(J1-GP1-Pad2)*%
X157500000Y-100560000D03*
%TO.P,J1,3,GND*%
%TO.N,GND*%
X157500000Y-98020000D03*
%TO.P,J1,4,GP2*%
%TO.N,/GPIO2*%
X157500000Y-95480000D03*
%TO.P,J1,5,GP3*%
%TO.N,/GPIO3*%
X157500000Y-92940000D03*
%TO.P,J1,6,GP4*%
%TO.N,unconnected-(J1-GP4-Pad6)*%
X157500000Y-90400000D03*
%TO.P,J1,7,GP5*%
%TO.N,unconnected-(J1-GP5-Pad7)*%
X157500000Y-87860000D03*
%TO.P,J1,8,GND*%
%TO.N,unconnected-(J1-GND-Pad8)*%
X157500000Y-85320000D03*
%TO.P,J1,9,GP6*%
%TO.N,unconnected-(J1-GP6-Pad9)*%
X157500000Y-82780000D03*
%TO.P,J1,10,GP7*%
%TO.N,unconnected-(J1-GP7-Pad10)*%
X157500000Y-80240000D03*
%TO.P,J1,11,GP8*%
%TO.N,/GPIO8*%
X157500000Y-77700000D03*
%TO.P,J1,12,GP9*%
%TO.N,/GPIO9*%
X157500000Y-75160000D03*
%TO.P,J1,13,GND*%
%TO.N,unconnected-(J1-GND-Pad13)*%
X157500000Y-72620000D03*
%TO.P,J1,14,GP10*%
%TO.N,/GPIO10*%
X157500000Y-70080000D03*
%TO.P,J1,15,GP11*%
%TO.N,/GPIO11*%
X157500000Y-67540000D03*
%TO.P,J1,16,GP12*%
%TO.N,/GPIO12*%
X157500000Y-65000000D03*
%TO.P,J1,17,GP13*%
%TO.N,/GPIO13*%
X157500000Y-62460000D03*
%TO.P,J1,18,GND*%
%TO.N,GND*%
X157500000Y-59920000D03*
%TO.P,J1,19,GP14*%
%TO.N,unconnected-(J1-GP14-Pad19)*%
X157500000Y-57380000D03*
%TO.P,J1,20,GP15*%
%TO.N,unconnected-(J1-GP15-Pad20)*%
X157500000Y-54840000D03*
%TD*%
D17*
%TO.N,GND*%
X142500000Y-61550000D02*
X142500000Y-61500000D01*
D18*
X157500000Y-59920000D02*
X157080000Y-59920000D01*
X185890000Y-79650000D02*
X183350000Y-79650000D01*
X183350000Y-79650000D02*
X183350000Y-79070000D01*
D17*
%TO.N,/VCC*%
X163450000Y-80450000D02*
X175990000Y-92990000D01*
X163450000Y-55000000D02*
X163450000Y-80450000D01*
X175990000Y-92990000D02*
X176950000Y-92990000D01*
%TO.N,/V+*%
X178549000Y-104749000D02*
X176950000Y-103150000D01*
X199500000Y-96000000D02*
X190751000Y-104749000D01*
X199500000Y-73519750D02*
X199500000Y-96000000D01*
X190751000Y-104749000D02*
X178549000Y-104749000D01*
X184489500Y-58509250D02*
X199500000Y-73519750D01*
%TO.N,Net-(BAT1-Pin_1)*%
X181500000Y-55500000D02*
X181500000Y-67670000D01*
X193480000Y-79650000D02*
X194810000Y-79650000D01*
X178000000Y-52000000D02*
X181500000Y-55500000D01*
X181500000Y-67670000D02*
X193480000Y-79650000D01*
X140500000Y-61435108D02*
X149935108Y-52000000D01*
X140500000Y-61550000D02*
X140500000Y-61435108D01*
X149935108Y-52000000D02*
X178000000Y-52000000D01*
%TO.N,Net-(U1-Vout+)*%
X184489500Y-66789500D02*
X197350000Y-79650000D01*
X184489500Y-65509250D02*
X184489500Y-66789500D01*
%TD*%
%TA.AperFunction,Conductor*%
%TO.N,GND*%
G36*
X148887364Y-51420185D02*
G01*
X148933119Y-51472989D01*
X148943063Y-51542147D01*
X148914038Y-51605703D01*
X148908006Y-51612181D01*
X140382005Y-60138181D01*
X140320682Y-60171666D01*
X140294325Y-60174500D01*
X140099999Y-60174500D01*
X140099980Y-60174501D01*
X139997203Y-60185000D01*
X139997200Y-60185001D01*
X139830668Y-60240185D01*
X139830663Y-60240187D01*
X139681342Y-60332289D01*
X139557289Y-60456342D01*
X139465187Y-60605663D01*
X139465186Y-60605666D01*
X139410001Y-60772203D01*
X139410001Y-60772204D01*
X139410000Y-60772204D01*
X139399500Y-60874983D01*
X139399500Y-62225001D01*
X139399501Y-62225018D01*
X139410000Y-62327796D01*
X139410001Y-62327799D01*
X139435157Y-62403713D01*
X139465186Y-62494334D01*
X139557288Y-62643656D01*
X139681344Y-62767712D01*
X139830666Y-62859814D01*
X139997203Y-62914999D01*
X140099991Y-62925500D01*
X140900008Y-62925499D01*
X140900016Y-62925498D01*
X140900019Y-62925498D01*
X140956302Y-62919748D01*
X141002797Y-62914999D01*
X141169334Y-62859814D01*
X141318656Y-62767712D01*
X141442712Y-62643656D01*
X141482581Y-62579016D01*
X141534525Y-62532294D01*
X141603488Y-62521071D01*
X141667570Y-62548914D01*
X141675799Y-62556434D01*
X141783397Y-62664032D01*
X141923475Y-62765804D01*
X142077744Y-62844408D01*
X142242415Y-62897914D01*
X142242414Y-62897914D01*
X142249999Y-62899115D01*
X142250000Y-62899114D01*
X142250000Y-61830330D01*
X142269745Y-61850075D01*
X142355255Y-61899444D01*
X142450630Y-61925000D01*
X142549370Y-61925000D01*
X142644745Y-61899444D01*
X142730255Y-61850075D01*
X142750000Y-61830330D01*
X142750000Y-62899115D01*
X142757584Y-62897914D01*
X142922255Y-62844408D01*
X143076524Y-62765804D01*
X143216602Y-62664032D01*
X143339032Y-62541602D01*
X143440804Y-62401524D01*
X143496332Y-62292546D01*
X143519408Y-62247257D01*
X143572914Y-62082584D01*
X143600000Y-61911571D01*
X143600000Y-61800000D01*
X142780330Y-61800000D01*
X142800075Y-61780255D01*
X142849444Y-61694745D01*
X142875000Y-61599370D01*
X142875000Y-61500630D01*
X142849444Y-61405255D01*
X142800075Y-61319745D01*
X142780330Y-61300000D01*
X143600000Y-61300000D01*
X143600000Y-61188428D01*
X143572914Y-61017415D01*
X143519408Y-60852742D01*
X143440804Y-60698475D01*
X143339032Y-60558397D01*
X143216600Y-60435965D01*
X143158828Y-60393991D01*
X143116163Y-60338661D01*
X143110184Y-60269047D01*
X143142790Y-60207252D01*
X143143860Y-60206166D01*
X148616315Y-54733713D01*
X156149500Y-54733713D01*
X156149500Y-54946286D01*
X156174841Y-55106287D01*
X156182754Y-55156243D01*
X156234741Y-55316243D01*
X156248444Y-55358414D01*
X156344951Y-55547820D01*
X156469890Y-55719786D01*
X156620213Y-55870109D01*
X156792182Y-55995050D01*
X156800946Y-55999516D01*
X156851742Y-56047491D01*
X156868536Y-56115312D01*
X156845998Y-56181447D01*
X156800946Y-56220484D01*
X156792182Y-56224949D01*
X156620213Y-56349890D01*
X156469890Y-56500213D01*
X156344951Y-56672179D01*
X156248444Y-56861585D01*
X156182753Y-57063760D01*
X156149500Y-57273713D01*
X156149500Y-57486286D01*
X156178980Y-57672420D01*
X156182754Y-57696243D01*
X156219603Y-57809653D01*
X156248444Y-57898414D01*
X156344951Y-58087820D01*
X156469890Y-58259786D01*
X156620213Y-58410109D01*
X156792179Y-58535048D01*
X156792181Y-58535049D01*
X156792184Y-58535051D01*
X156801493Y-58539794D01*
X156852290Y-58587766D01*
X156869087Y-58655587D01*
X156846552Y-58721722D01*
X156801505Y-58760760D01*
X156792446Y-58765376D01*
X156792440Y-58765380D01*
X156738282Y-58804727D01*
X156738282Y-58804728D01*
X157370591Y-59437037D01*
X157307007Y-59454075D01*
X157192993Y-59519901D01*
X157099901Y-59612993D01*
X157034075Y-59727007D01*
X157017037Y-59790591D01*
X156384728Y-59158282D01*
X156384727Y-59158282D01*
X156345380Y-59212439D01*
X156248904Y-59401782D01*
X156183242Y-59603869D01*
X156183242Y-59603872D01*
X156150000Y-59813753D01*
X156150000Y-60026246D01*
X156183242Y-60236127D01*
X156183242Y-60236130D01*
X156248904Y-60438217D01*
X156345375Y-60627550D01*
X156384728Y-60681716D01*
X157017037Y-60049408D01*
X157034075Y-60112993D01*
X157099901Y-60227007D01*
X157192993Y-60320099D01*
X157307007Y-60385925D01*
X157370590Y-60402962D01*
X156738282Y-61035269D01*
X156738282Y-61035270D01*
X156792452Y-61074626D01*
X156792451Y-61074626D01*
X156801495Y-61079234D01*
X156852292Y-61127208D01*
X156869087Y-61195029D01*
X156846550Y-61261164D01*
X156801499Y-61300202D01*
X156792182Y-61304949D01*
X156620213Y-61429890D01*
X156469890Y-61580213D01*
X156344951Y-61752179D01*
X156248444Y-61941585D01*
X156182753Y-62143760D01*
X156149500Y-62353713D01*
X156149500Y-62566286D01*
X156181402Y-62767712D01*
X156182754Y-62776243D01*
X156231250Y-62925499D01*
X156248444Y-62978414D01*
X156344951Y-63167820D01*
X156469890Y-63339786D01*
X156620213Y-63490109D01*
X156792182Y-63615050D01*
X156800946Y-63619516D01*
X156851742Y-63667491D01*
X156868536Y-63735312D01*
X156845998Y-63801447D01*
X156800946Y-63840484D01*
X156792182Y-63844949D01*
X156620213Y-63969890D01*
X156469890Y-64120213D01*
X156344951Y-64292179D01*
X156248444Y-64481585D01*
X156182753Y-64683760D01*
X156149500Y-64893713D01*
X156149500Y-65106286D01*
X156182753Y-65316239D01*
X156248444Y-65518414D01*
X156344951Y-65707820D01*
X156469890Y-65879786D01*
X156620213Y-66030109D01*
X156792182Y-66155050D01*
X156800946Y-66159516D01*
X156851742Y-66207491D01*
X156868536Y-66275312D01*
X156845998Y-66341447D01*
X156800946Y-66380484D01*
X156792182Y-66384949D01*
X156620213Y-66509890D01*
X156469890Y-66660213D01*
X156344951Y-66832179D01*
X156248444Y-67021585D01*
X156182753Y-67223760D01*
X156149500Y-67433713D01*
X156149500Y-67646286D01*
X156168863Y-67768543D01*
X156182754Y-67856243D01*
X156217064Y-67961839D01*
X156248444Y-68058414D01*
X156344951Y-68247820D01*
X156469890Y-68419786D01*
X156620213Y-68570109D01*
X156792182Y-68695050D01*
X156800946Y-68699516D01*
X156851742Y-68747491D01*
X156868536Y-68815312D01*
X156845998Y-68881447D01*
X156800946Y-68920484D01*
X156792182Y-68924949D01*
X156620213Y-69049890D01*
X156469890Y-69200213D01*
X156344951Y-69372179D01*
X156248444Y-69561585D01*
X156182753Y-69763760D01*
X156149500Y-69973713D01*
X156149500Y-70186286D01*
X156182753Y-70396239D01*
X156248444Y-70598414D01*
X156344951Y-70787820D01*
X156469890Y-70959786D01*
X156620213Y-71110109D01*
X156792182Y-71235050D01*
X156800946Y-71239516D01*
X156851742Y-71287491D01*
X156868536Y-71355312D01*
X156845998Y-71421447D01*
X156800946Y-71460484D01*
X156792182Y-71464949D01*
X156620213Y-71589890D01*
X156469890Y-71740213D01*
X156344951Y-71912179D01*
X156248444Y-72101585D01*
X156182753Y-72303760D01*
X156155314Y-72477007D01*
X156149500Y-72513713D01*
X156149500Y-72726287D01*
X156182754Y-72936243D01*
X156211123Y-73023554D01*
X156248444Y-73138414D01*
X156344951Y-73327820D01*
X156469890Y-73499786D01*
X156620213Y-73650109D01*
X156792182Y-73775050D01*
X156800946Y-73779516D01*
X156851742Y-73827491D01*
X156868536Y-73895312D01*
X156845998Y-73961447D01*
X156800946Y-74000484D01*
X156792182Y-74004949D01*
X156620213Y-74129890D01*
X156469890Y-74280213D01*
X156344951Y-74452179D01*
X156248444Y-74641585D01*
X156182753Y-74843760D01*
X156149500Y-75053713D01*
X156149500Y-75266286D01*
X156182753Y-75476239D01*
X156248444Y-75678414D01*
X156344951Y-75867820D01*
X156469890Y-76039786D01*
X156620213Y-76190109D01*
X156792182Y-76315050D01*
X156800946Y-76319516D01*
X156851742Y-76367491D01*
X156868536Y-76435312D01*
X156845998Y-76501447D01*
X156800946Y-76540484D01*
X156792182Y-76544949D01*
X156620213Y-76669890D01*
X156469890Y-76820213D01*
X156344951Y-76992179D01*
X156248444Y-77181585D01*
X156182753Y-77383760D01*
X156174834Y-77433760D01*
X156149500Y-77593713D01*
X156149500Y-77806287D01*
X156182754Y-78016243D01*
X156233108Y-78171217D01*
X156248444Y-78218414D01*
X156344951Y-78407820D01*
X156469890Y-78579786D01*
X156620213Y-78730109D01*
X156792182Y-78855050D01*
X156800946Y-78859516D01*
X156851742Y-78907491D01*
X156868536Y-78975312D01*
X156845998Y-79041447D01*
X156800946Y-79080484D01*
X156792182Y-79084949D01*
X156620213Y-79209890D01*
X156469890Y-79360213D01*
X156344951Y-79532179D01*
X156248444Y-79721585D01*
X156182753Y-79923760D01*
X156149500Y-80133713D01*
X156149500Y-80346286D01*
X156176871Y-80519104D01*
X156182754Y-80556243D01*
X156219776Y-80670185D01*
X156248444Y-80758414D01*
X156344951Y-80947820D01*
X156469890Y-81119786D01*
X156620213Y-81270109D01*
X156792182Y-81395050D01*
X156800946Y-81399516D01*
X156851742Y-81447491D01*
X156868536Y-81515312D01*
X156845998Y-81581447D01*
X156800946Y-81620484D01*
X156792182Y-81624949D01*
X156620213Y-81749890D01*
X156469890Y-81900213D01*
X156344951Y-82072179D01*
X156248444Y-82261585D01*
X156182753Y-82463760D01*
X156149500Y-82673713D01*
X156149500Y-82886286D01*
X156182753Y-83096239D01*
X156248444Y-83298414D01*
X156344951Y-83487820D01*
X156469890Y-83659786D01*
X156620213Y-83810109D01*
X156792182Y-83935050D01*
X156800946Y-83939516D01*
X156851742Y-83987491D01*
X156868536Y-84055312D01*
X156845998Y-84121447D01*
X156800946Y-84160484D01*
X156792182Y-84164949D01*
X156620213Y-84289890D01*
X156469890Y-84440213D01*
X156344951Y-84612179D01*
X156248444Y-84801585D01*
X156182753Y-85003760D01*
X156149500Y-85213713D01*
X156149500Y-85426286D01*
X156182753Y-85636239D01*
X156248444Y-85838414D01*
X156344951Y-86027820D01*
X156469890Y-86199786D01*
X156620213Y-86350109D01*
X156792182Y-86475050D01*
X156800946Y-86479516D01*
X156851742Y-86527491D01*
X156868536Y-86595312D01*
X156845998Y-86661447D01*
X156800946Y-86700484D01*
X156792182Y-86704949D01*
X156620213Y-86829890D01*
X156469890Y-86980213D01*
X156344951Y-87152179D01*
X156248444Y-87341585D01*
X156182753Y-87543760D01*
X156149500Y-87753713D01*
X156149500Y-87966286D01*
X156182753Y-88176239D01*
X156248444Y-88378414D01*
X156344951Y-88567820D01*
X156469890Y-88739786D01*
X156620213Y-88890109D01*
X156792182Y-89015050D01*
X156800946Y-89019516D01*
X156851742Y-89067491D01*
X156868536Y-89135312D01*
X156845998Y-89201447D01*
X156800946Y-89240484D01*
X156792182Y-89244949D01*
X156620213Y-89369890D01*
X156469890Y-89520213D01*
X156344951Y-89692179D01*
X156248444Y-89881585D01*
X156182753Y-90083760D01*
X156149500Y-90293713D01*
X156149500Y-90506286D01*
X156182753Y-90716239D01*
X156248444Y-90918414D01*
X156344951Y-91107820D01*
X156469890Y-91279786D01*
X156620213Y-91430109D01*
X156792182Y-91555050D01*
X156800946Y-91559516D01*
X156851742Y-91607491D01*
X156868536Y-91675312D01*
X156845998Y-91741447D01*
X156800946Y-91780484D01*
X156792182Y-91784949D01*
X156620213Y-91909890D01*
X156469890Y-92060213D01*
X156344951Y-92232179D01*
X156248444Y-92421585D01*
X156182753Y-92623760D01*
X156149500Y-92833713D01*
X156149500Y-93046286D01*
X156182753Y-93256239D01*
X156248444Y-93458414D01*
X156344951Y-93647820D01*
X156469890Y-93819786D01*
X156620213Y-93970109D01*
X156792182Y-94095050D01*
X156800946Y-94099516D01*
X156851742Y-94147491D01*
X156868536Y-94215312D01*
X156845998Y-94281447D01*
X156800946Y-94320484D01*
X156792182Y-94324949D01*
X156620213Y-94449890D01*
X156469890Y-94600213D01*
X156344951Y-94772179D01*
X156248444Y-94961585D01*
X156182753Y-95163760D01*
X156149500Y-95373713D01*
X156149500Y-95586286D01*
X156182753Y-95796239D01*
X156248444Y-95998414D01*
X156344951Y-96187820D01*
X156469890Y-96359786D01*
X156620213Y-96510109D01*
X156792179Y-96635048D01*
X156792181Y-96635049D01*
X156792184Y-96635051D01*
X156801493Y-96639794D01*
X156852290Y-96687766D01*
X156869087Y-96755587D01*
X156846552Y-96821722D01*
X156801505Y-96860760D01*
X156792446Y-96865376D01*
X156792440Y-96865380D01*
X156738282Y-96904727D01*
X156738282Y-96904728D01*
X157370591Y-97537037D01*
X157307007Y-97554075D01*
X157192993Y-97619901D01*
X157099901Y-97712993D01*
X157034075Y-97827007D01*
X157017037Y-97890591D01*
X156384728Y-97258282D01*
X156384727Y-97258282D01*
X156345380Y-97312439D01*
X156248904Y-97501782D01*
X156183242Y-97703869D01*
X156183242Y-97703872D01*
X156150000Y-97913753D01*
X156150000Y-98126246D01*
X156183242Y-98336127D01*
X156183242Y-98336130D01*
X156248904Y-98538217D01*
X156345375Y-98727550D01*
X156384728Y-98781716D01*
X157017037Y-98149408D01*
X157034075Y-98212993D01*
X157099901Y-98327007D01*
X157192993Y-98420099D01*
X157307007Y-98485925D01*
X157370590Y-98502962D01*
X156738282Y-99135269D01*
X156738282Y-99135270D01*
X156792452Y-99174626D01*
X156792451Y-99174626D01*
X156801495Y-99179234D01*
X156852292Y-99227208D01*
X156869087Y-99295029D01*
X156846550Y-99361164D01*
X156801499Y-99400202D01*
X156792182Y-99404949D01*
X156620213Y-99529890D01*
X156469890Y-99680213D01*
X156344951Y-99852179D01*
X156248444Y-100041585D01*
X156182753Y-100243760D01*
X156149500Y-100453713D01*
X156149500Y-100666286D01*
X156182753Y-100876239D01*
X156248444Y-101078414D01*
X156344951Y-101267820D01*
X156469890Y-101439786D01*
X156583430Y-101553326D01*
X156616915Y-101614649D01*
X156611931Y-101684341D01*
X156570059Y-101740274D01*
X156539083Y-101757189D01*
X156407669Y-101806203D01*
X156407664Y-101806206D01*
X156292455Y-101892452D01*
X156292452Y-101892455D01*
X156206206Y-102007664D01*
X156206202Y-102007671D01*
X156155908Y-102142517D01*
X156149501Y-102202116D01*
X156149501Y-102202123D01*
X156149500Y-102202135D01*
X156149500Y-103997870D01*
X156149501Y-103997876D01*
X156155908Y-104057483D01*
X156206202Y-104192328D01*
X156206206Y-104192335D01*
X156292452Y-104307544D01*
X156292455Y-104307547D01*
X156407664Y-104393793D01*
X156407671Y-104393797D01*
X156542517Y-104444091D01*
X156542516Y-104444091D01*
X156549444Y-104444835D01*
X156602127Y-104450500D01*
X158397872Y-104450499D01*
X158457483Y-104444091D01*
X158592331Y-104393796D01*
X158707546Y-104307546D01*
X158793796Y-104192331D01*
X158844091Y-104057483D01*
X158850500Y-103997873D01*
X158850499Y-102202128D01*
X158844091Y-102142517D01*
X158793796Y-102007669D01*
X158793795Y-102007668D01*
X158793793Y-102007664D01*
X158707547Y-101892455D01*
X158707544Y-101892452D01*
X158592335Y-101806206D01*
X158592328Y-101806202D01*
X158460917Y-101757189D01*
X158404983Y-101715318D01*
X158380566Y-101649853D01*
X158395418Y-101581580D01*
X158416563Y-101553332D01*
X158530104Y-101439792D01*
X158655051Y-101267816D01*
X158751557Y-101078412D01*
X158817246Y-100876243D01*
X158850500Y-100666287D01*
X158850500Y-100453713D01*
X158817246Y-100243757D01*
X158751557Y-100041588D01*
X158655051Y-99852184D01*
X158655049Y-99852181D01*
X158655048Y-99852179D01*
X158530109Y-99680213D01*
X158379786Y-99529890D01*
X158207817Y-99404949D01*
X158198504Y-99400204D01*
X158147707Y-99352230D01*
X158130912Y-99284409D01*
X158153449Y-99218274D01*
X158198507Y-99179232D01*
X158207555Y-99174622D01*
X158261716Y-99135270D01*
X158261717Y-99135270D01*
X157629408Y-98502962D01*
X157692993Y-98485925D01*
X157807007Y-98420099D01*
X157900099Y-98327007D01*
X157965925Y-98212993D01*
X157982962Y-98149408D01*
X158615270Y-98781717D01*
X158615270Y-98781716D01*
X158654622Y-98727554D01*
X158751095Y-98538217D01*
X158816757Y-98336130D01*
X158816757Y-98336127D01*
X158850000Y-98126246D01*
X158850000Y-97913753D01*
X158816757Y-97703872D01*
X158816757Y-97703869D01*
X158751095Y-97501782D01*
X158654624Y-97312449D01*
X158615270Y-97258282D01*
X158615269Y-97258282D01*
X157982962Y-97890590D01*
X157965925Y-97827007D01*
X157900099Y-97712993D01*
X157807007Y-97619901D01*
X157692993Y-97554075D01*
X157629409Y-97537037D01*
X158261716Y-96904728D01*
X158207547Y-96865373D01*
X158207547Y-96865372D01*
X158198500Y-96860763D01*
X158147706Y-96812788D01*
X158130912Y-96744966D01*
X158153451Y-96678832D01*
X158198508Y-96639793D01*
X158207816Y-96635051D01*
X158310966Y-96560109D01*
X158379786Y-96510109D01*
X158379788Y-96510106D01*
X158379792Y-96510104D01*
X158530104Y-96359792D01*
X158530106Y-96359788D01*
X158530109Y-96359786D01*
X158655048Y-96187820D01*
X158655047Y-96187820D01*
X158655051Y-96187816D01*
X158751557Y-95998412D01*
X158817246Y-95796243D01*
X158850500Y-95586287D01*
X158850500Y-95373713D01*
X158817246Y-95163757D01*
X158751557Y-94961588D01*
X158655051Y-94772184D01*
X158655049Y-94772181D01*
X158655048Y-94772179D01*
X158530109Y-94600213D01*
X158379786Y-94449890D01*
X158207820Y-94324951D01*
X158203033Y-94322512D01*
X158199054Y-94320485D01*
X158148259Y-94272512D01*
X158131463Y-94204692D01*
X158153999Y-94138556D01*
X158199054Y-94099515D01*
X158207816Y-94095051D01*
X158310966Y-94020109D01*
X158379786Y-93970109D01*
X158379788Y-93970106D01*
X158379792Y-93970104D01*
X158530104Y-93819792D01*
X158530106Y-93819788D01*
X158530109Y-93819786D01*
X158655048Y-93647820D01*
X158655047Y-93647820D01*
X158655051Y-93647816D01*
X158751557Y-93458412D01*
X158817246Y-93256243D01*
X158850500Y-93046287D01*
X158850500Y-92833713D01*
X158817246Y-92623757D01*
X158751557Y-92421588D01*
X158655051Y-92232184D01*
X158655049Y-92232181D01*
X158655048Y-92232179D01*
X158530109Y-92060213D01*
X158379786Y-91909890D01*
X158207820Y-91784951D01*
X158203033Y-91782512D01*
X158199054Y-91780485D01*
X158148259Y-91732512D01*
X158131463Y-91664692D01*
X158153999Y-91598556D01*
X158199054Y-91559515D01*
X158207816Y-91555051D01*
X158310966Y-91480109D01*
X158379786Y-91430109D01*
X158379788Y-91430106D01*
X158379792Y-91430104D01*
X158530104Y-91279792D01*
X158530106Y-91279788D01*
X158530109Y-91279786D01*
X158655048Y-91107820D01*
X158655047Y-91107820D01*
X158655051Y-91107816D01*
X158751557Y-90918412D01*
X158817246Y-90716243D01*
X158850500Y-90506287D01*
X158850500Y-90293713D01*
X158817246Y-90083757D01*
X158751557Y-89881588D01*
X158655051Y-89692184D01*
X158655049Y-89692181D01*
X158655048Y-89692179D01*
X158530109Y-89520213D01*
X158379786Y-89369890D01*
X158207820Y-89244951D01*
X158203033Y-89242512D01*
X158199054Y-89240485D01*
X158148259Y-89192512D01*
X158131463Y-89124692D01*
X158153999Y-89058556D01*
X158199054Y-89019515D01*
X158207816Y-89015051D01*
X158310966Y-88940109D01*
X158379786Y-88890109D01*
X158379788Y-88890106D01*
X158379792Y-88890104D01*
X158530104Y-88739792D01*
X158530106Y-88739788D01*
X158530109Y-88739786D01*
X158655048Y-88567820D01*
X158655047Y-88567820D01*
X158655051Y-88567816D01*
X158751557Y-88378412D01*
X158817246Y-88176243D01*
X158850500Y-87966287D01*
X158850500Y-87753713D01*
X158817246Y-87543757D01*
X158751557Y-87341588D01*
X158655051Y-87152184D01*
X158655049Y-87152181D01*
X158655048Y-87152179D01*
X158530109Y-86980213D01*
X158379786Y-86829890D01*
X158207820Y-86704951D01*
X158203033Y-86702512D01*
X158199054Y-86700485D01*
X158148259Y-86652512D01*
X158131463Y-86584692D01*
X158153999Y-86518556D01*
X158199054Y-86479515D01*
X158207816Y-86475051D01*
X158310966Y-86400109D01*
X158379786Y-86350109D01*
X158379788Y-86350106D01*
X158379792Y-86350104D01*
X158530104Y-86199792D01*
X158530106Y-86199788D01*
X158530109Y-86199786D01*
X158655048Y-86027820D01*
X158655047Y-86027820D01*
X158655051Y-86027816D01*
X158751557Y-85838412D01*
X158817246Y-85636243D01*
X158850500Y-85426287D01*
X158850500Y-85213713D01*
X158817246Y-85003757D01*
X158751557Y-84801588D01*
X158655051Y-84612184D01*
X158655049Y-84612181D01*
X158655048Y-84612179D01*
X158530109Y-84440213D01*
X158379786Y-84289890D01*
X158207820Y-84164951D01*
X158203033Y-84162512D01*
X158199054Y-84160485D01*
X158148259Y-84112512D01*
X158131463Y-84044692D01*
X158153999Y-83978556D01*
X158199054Y-83939515D01*
X158207816Y-83935051D01*
X158310966Y-83860109D01*
X158379786Y-83810109D01*
X158379788Y-83810106D01*
X158379792Y-83810104D01*
X158530104Y-83659792D01*
X158530106Y-83659788D01*
X158530109Y-83659786D01*
X158655048Y-83487820D01*
X158655047Y-83487820D01*
X158655051Y-83487816D01*
X158751557Y-83298412D01*
X158817246Y-83096243D01*
X158850500Y-82886287D01*
X158850500Y-82673713D01*
X158817246Y-82463757D01*
X158751557Y-82261588D01*
X158655051Y-82072184D01*
X158655049Y-82072181D01*
X158655048Y-82072179D01*
X158530109Y-81900213D01*
X158379786Y-81749890D01*
X158207820Y-81624951D01*
X158203033Y-81622512D01*
X158199054Y-81620485D01*
X158148259Y-81572512D01*
X158131463Y-81504692D01*
X158153999Y-81438556D01*
X158199054Y-81399515D01*
X158207816Y-81395051D01*
X158310966Y-81320109D01*
X158379786Y-81270109D01*
X158379788Y-81270106D01*
X158379792Y-81270104D01*
X158530104Y-81119792D01*
X158530106Y-81119788D01*
X158530109Y-81119786D01*
X158655048Y-80947820D01*
X158655047Y-80947820D01*
X158655051Y-80947816D01*
X158751557Y-80758412D01*
X158817246Y-80556243D01*
X158850500Y-80346287D01*
X158850500Y-80133713D01*
X158817246Y-79923757D01*
X158751557Y-79721588D01*
X158655051Y-79532184D01*
X158655049Y-79532181D01*
X158655048Y-79532179D01*
X158530109Y-79360213D01*
X158379786Y-79209890D01*
X158207820Y-79084951D01*
X158203033Y-79082512D01*
X158199054Y-79080485D01*
X158148259Y-79032512D01*
X158131463Y-78964692D01*
X158153999Y-78898556D01*
X158199054Y-78859515D01*
X158207816Y-78855051D01*
X158305811Y-78783854D01*
X158379786Y-78730109D01*
X158379788Y-78730106D01*
X158379792Y-78730104D01*
X158530104Y-78579792D01*
X158530106Y-78579788D01*
X158530109Y-78579786D01*
X158655048Y-78407820D01*
X158655047Y-78407820D01*
X158655051Y-78407816D01*
X158751557Y-78218412D01*
X158817246Y-78016243D01*
X158850500Y-77806287D01*
X158850500Y-77593713D01*
X158817246Y-77383757D01*
X158751557Y-77181588D01*
X158655051Y-76992184D01*
X158655049Y-76992181D01*
X158655048Y-76992179D01*
X158530109Y-76820213D01*
X158379786Y-76669890D01*
X158207820Y-76544951D01*
X158203033Y-76542512D01*
X158199054Y-76540485D01*
X158148259Y-76492512D01*
X158131463Y-76424692D01*
X158153999Y-76358556D01*
X158199054Y-76319515D01*
X158207816Y-76315051D01*
X158310966Y-76240109D01*
X158379786Y-76190109D01*
X158379788Y-76190106D01*
X158379792Y-76190104D01*
X158530104Y-76039792D01*
X158530106Y-76039788D01*
X158530109Y-76039786D01*
X158655048Y-75867820D01*
X158655047Y-75867820D01*
X158655051Y-75867816D01*
X158751557Y-75678412D01*
X158817246Y-75476243D01*
X158850500Y-75266287D01*
X158850500Y-75053713D01*
X158817246Y-74843757D01*
X158751557Y-74641588D01*
X158655051Y-74452184D01*
X158655049Y-74452181D01*
X158655048Y-74452179D01*
X158530109Y-74280213D01*
X158379786Y-74129890D01*
X158207820Y-74004951D01*
X158207115Y-74004591D01*
X158199054Y-74000485D01*
X158148259Y-73952512D01*
X158131463Y-73884692D01*
X158153999Y-73818556D01*
X158199054Y-73779515D01*
X158207816Y-73775051D01*
X158229789Y-73759086D01*
X158379786Y-73650109D01*
X158379788Y-73650106D01*
X158379792Y-73650104D01*
X158530104Y-73499792D01*
X158530106Y-73499788D01*
X158530109Y-73499786D01*
X158655048Y-73327820D01*
X158655050Y-73327817D01*
X158655051Y-73327816D01*
X158751557Y-73138412D01*
X158817246Y-72936243D01*
X158850500Y-72726287D01*
X158850500Y-72513713D01*
X158817246Y-72303757D01*
X158751557Y-72101588D01*
X158655051Y-71912184D01*
X158655049Y-71912181D01*
X158655048Y-71912179D01*
X158530109Y-71740213D01*
X158379786Y-71589890D01*
X158207820Y-71464951D01*
X158207115Y-71464591D01*
X158199054Y-71460485D01*
X158148259Y-71412512D01*
X158131463Y-71344692D01*
X158153999Y-71278556D01*
X158199054Y-71239515D01*
X158207816Y-71235051D01*
X158310966Y-71160109D01*
X158379786Y-71110109D01*
X158379788Y-71110106D01*
X158379792Y-71110104D01*
X158530104Y-70959792D01*
X158530106Y-70959788D01*
X158530109Y-70959786D01*
X158655048Y-70787820D01*
X158655047Y-70787820D01*
X158655051Y-70787816D01*
X158751557Y-70598412D01*
X158817246Y-70396243D01*
X158850500Y-70186287D01*
X158850500Y-69973713D01*
X158817246Y-69763757D01*
X158751557Y-69561588D01*
X158655051Y-69372184D01*
X158655049Y-69372181D01*
X158655048Y-69372179D01*
X158530109Y-69200213D01*
X158379786Y-69049890D01*
X158207820Y-68924951D01*
X158203033Y-68922512D01*
X158199054Y-68920485D01*
X158148259Y-68872512D01*
X158131463Y-68804692D01*
X158153999Y-68738556D01*
X158199054Y-68699515D01*
X158207816Y-68695051D01*
X158310966Y-68620109D01*
X158379786Y-68570109D01*
X158379788Y-68570106D01*
X158379792Y-68570104D01*
X158530104Y-68419792D01*
X158530106Y-68419788D01*
X158530109Y-68419786D01*
X158655048Y-68247820D01*
X158655047Y-68247820D01*
X158655051Y-68247816D01*
X158751557Y-68058412D01*
X158817246Y-67856243D01*
X158850500Y-67646287D01*
X158850500Y-67433713D01*
X158817246Y-67223757D01*
X158751557Y-67021588D01*
X158655051Y-66832184D01*
X158655049Y-66832181D01*
X158655048Y-66832179D01*
X158530109Y-66660213D01*
X158379786Y-66509890D01*
X158207820Y-66384951D01*
X158203033Y-66382512D01*
X158199054Y-66380485D01*
X158148259Y-66332512D01*
X158131463Y-66264692D01*
X158153999Y-66198556D01*
X158199054Y-66159515D01*
X158207816Y-66155051D01*
X158310966Y-66080109D01*
X158379786Y-66030109D01*
X158379788Y-66030106D01*
X158379792Y-66030104D01*
X158530104Y-65879792D01*
X158530106Y-65879788D01*
X158530109Y-65879786D01*
X158655048Y-65707820D01*
X158655047Y-65707820D01*
X158655051Y-65707816D01*
X158751557Y-65518412D01*
X158817246Y-65316243D01*
X158850500Y-65106287D01*
X158850500Y-64893713D01*
X158817246Y-64683757D01*
X158751557Y-64481588D01*
X158655051Y-64292184D01*
X158655049Y-64292181D01*
X158655048Y-64292179D01*
X158530109Y-64120213D01*
X158379786Y-63969890D01*
X158207820Y-63844951D01*
X158203033Y-63842512D01*
X158199054Y-63840485D01*
X158148259Y-63792512D01*
X158131463Y-63724692D01*
X158153999Y-63658556D01*
X158199054Y-63619515D01*
X158207816Y-63615051D01*
X158310966Y-63540109D01*
X158379786Y-63490109D01*
X158379788Y-63490106D01*
X158379792Y-63490104D01*
X158530104Y-63339792D01*
X158530106Y-63339788D01*
X158530109Y-63339786D01*
X158655048Y-63167820D01*
X158655047Y-63167820D01*
X158655051Y-63167816D01*
X158751557Y-62978412D01*
X158817246Y-62776243D01*
X158850500Y-62566287D01*
X158850500Y-62353713D01*
X158817246Y-62143757D01*
X158751557Y-61941588D01*
X158655051Y-61752184D01*
X158655049Y-61752181D01*
X158655048Y-61752179D01*
X158530109Y-61580213D01*
X158379786Y-61429890D01*
X158207817Y-61304949D01*
X158198504Y-61300204D01*
X158147707Y-61252230D01*
X158130912Y-61184409D01*
X158153449Y-61118274D01*
X158198507Y-61079232D01*
X158207555Y-61074622D01*
X158261716Y-61035270D01*
X158261717Y-61035270D01*
X157629408Y-60402962D01*
X157692993Y-60385925D01*
X157807007Y-60320099D01*
X157900099Y-60227007D01*
X157965925Y-60112993D01*
X157982962Y-60049408D01*
X158615270Y-60681717D01*
X158615270Y-60681716D01*
X158654622Y-60627554D01*
X158751095Y-60438217D01*
X158816757Y-60236130D01*
X158816757Y-60236127D01*
X158850000Y-60026246D01*
X158850000Y-59813753D01*
X158816757Y-59603872D01*
X158816757Y-59603869D01*
X158751095Y-59401782D01*
X158654624Y-59212449D01*
X158615270Y-59158282D01*
X158615269Y-59158282D01*
X157982962Y-59790590D01*
X157965925Y-59727007D01*
X157900099Y-59612993D01*
X157807007Y-59519901D01*
X157692993Y-59454075D01*
X157629409Y-59437037D01*
X158261716Y-58804728D01*
X158207547Y-58765373D01*
X158207547Y-58765372D01*
X158198500Y-58760763D01*
X158147706Y-58712788D01*
X158130912Y-58644966D01*
X158153451Y-58578832D01*
X158198508Y-58539793D01*
X158207816Y-58535051D01*
X158310966Y-58460109D01*
X158379786Y-58410109D01*
X158379788Y-58410106D01*
X158379792Y-58410104D01*
X158530104Y-58259792D01*
X158530106Y-58259788D01*
X158530109Y-58259786D01*
X158655048Y-58087820D01*
X158655047Y-58087820D01*
X158655051Y-58087816D01*
X158751557Y-57898412D01*
X158817246Y-57696243D01*
X158850500Y-57486287D01*
X158850500Y-57273713D01*
X158817246Y-57063757D01*
X158751557Y-56861588D01*
X158655051Y-56672184D01*
X158655049Y-56672181D01*
X158655048Y-56672179D01*
X158530109Y-56500213D01*
X158379786Y-56349890D01*
X158207820Y-56224951D01*
X158207115Y-56224591D01*
X158199054Y-56220485D01*
X158148259Y-56172512D01*
X158131463Y-56104692D01*
X158153999Y-56038556D01*
X158199054Y-55999515D01*
X158207816Y-55995051D01*
X158318796Y-55914420D01*
X158379786Y-55870109D01*
X158379788Y-55870106D01*
X158379792Y-55870104D01*
X158530104Y-55719792D01*
X158530106Y-55719788D01*
X158530109Y-55719786D01*
X158655048Y-55547820D01*
X158655047Y-55547820D01*
X158655051Y-55547816D01*
X158751557Y-55358412D01*
X158817246Y-55156243D01*
X158850500Y-54946287D01*
X158850500Y-54733713D01*
X158817246Y-54523757D01*
X158751557Y-54321588D01*
X158655051Y-54132184D01*
X158655050Y-54132182D01*
X158530109Y-53960213D01*
X158379786Y-53809890D01*
X158207820Y-53684951D01*
X158018414Y-53588444D01*
X158018413Y-53588443D01*
X158018412Y-53588443D01*
X157816243Y-53522754D01*
X157816241Y-53522753D01*
X157816240Y-53522753D01*
X157654957Y-53497208D01*
X157606287Y-53489500D01*
X157393713Y-53489500D01*
X157345042Y-53497208D01*
X157183760Y-53522753D01*
X156981585Y-53588444D01*
X156792179Y-53684951D01*
X156620213Y-53809890D01*
X156469890Y-53960213D01*
X156344951Y-54132179D01*
X156248444Y-54321585D01*
X156182753Y-54523760D01*
X156149500Y-54733713D01*
X148616315Y-54733713D01*
X150313210Y-53036819D01*
X150374533Y-53003334D01*
X150400891Y-53000500D01*
X177534218Y-53000500D01*
X177601257Y-53020185D01*
X177621899Y-53036819D01*
X177912899Y-53327819D01*
X177946384Y-53389142D01*
X177941400Y-53458834D01*
X177899528Y-53514767D01*
X177834064Y-53539184D01*
X177825218Y-53539500D01*
X176052129Y-53539500D01*
X176052123Y-53539501D01*
X175992516Y-53545908D01*
X175857671Y-53596202D01*
X175857664Y-53596206D01*
X175742455Y-53682452D01*
X175742452Y-53682455D01*
X175656206Y-53797664D01*
X175656202Y-53797671D01*
X175605908Y-53932517D01*
X175599501Y-53992116D01*
X175599500Y-53992135D01*
X175599500Y-55787870D01*
X175599501Y-55787876D01*
X175605908Y-55847483D01*
X175656202Y-55982328D01*
X175656206Y-55982335D01*
X175742452Y-56097544D01*
X175742455Y-56097547D01*
X175857664Y-56183793D01*
X175857671Y-56183797D01*
X175989082Y-56232810D01*
X176045016Y-56274681D01*
X176069433Y-56340145D01*
X176054582Y-56408418D01*
X176033431Y-56436673D01*
X175919889Y-56550215D01*
X175794951Y-56722179D01*
X175698444Y-56911585D01*
X175632753Y-57113760D01*
X175599500Y-57323713D01*
X175599500Y-57536286D01*
X175624834Y-57696243D01*
X175632754Y-57746243D01*
X175653357Y-57809653D01*
X175698444Y-57948414D01*
X175794951Y-58137820D01*
X175919890Y-58309786D01*
X176070213Y-58460109D01*
X176242179Y-58585048D01*
X176242181Y-58585049D01*
X176242184Y-58585051D01*
X176251493Y-58589794D01*
X176302290Y-58637766D01*
X176319087Y-58705587D01*
X176296552Y-58771722D01*
X176251505Y-58810760D01*
X176242446Y-58815376D01*
X176242440Y-58815380D01*
X176188282Y-58854727D01*
X176188282Y-58854728D01*
X176820591Y-59487037D01*
X176757007Y-59504075D01*
X176642993Y-59569901D01*
X176549901Y-59662993D01*
X176484075Y-59777007D01*
X176467037Y-59840591D01*
X175834728Y-59208282D01*
X175834727Y-59208282D01*
X175795380Y-59262439D01*
X175698904Y-59451782D01*
X175633242Y-59653869D01*
X175633242Y-59653872D01*
X175600000Y-59863753D01*
X175600000Y-60076246D01*
X175633242Y-60286127D01*
X175633242Y-60286130D01*
X175698904Y-60488217D01*
X175795375Y-60677550D01*
X175834728Y-60731716D01*
X176467036Y-60099407D01*
X176484075Y-60162993D01*
X176549901Y-60277007D01*
X176642993Y-60370099D01*
X176757007Y-60435925D01*
X176820590Y-60452962D01*
X176188282Y-61085269D01*
X176188282Y-61085270D01*
X176242452Y-61124626D01*
X176242451Y-61124626D01*
X176251495Y-61129234D01*
X176302292Y-61177208D01*
X176319087Y-61245029D01*
X176296550Y-61311164D01*
X176251499Y-61350202D01*
X176242182Y-61354949D01*
X176070213Y-61479890D01*
X175919890Y-61630213D01*
X175794951Y-61802179D01*
X175698444Y-61991585D01*
X175632753Y-62193760D01*
X175599500Y-62403713D01*
X175599500Y-62616286D01*
X175624834Y-62776243D01*
X175632754Y-62826243D01*
X175665004Y-62925499D01*
X175698444Y-63028414D01*
X175794951Y-63217820D01*
X175919890Y-63389786D01*
X176070213Y-63540109D01*
X176242182Y-63665050D01*
X176250946Y-63669516D01*
X176301742Y-63717491D01*
X176318536Y-63785312D01*
X176295998Y-63851447D01*
X176250946Y-63890484D01*
X176242182Y-63894949D01*
X176070213Y-64019890D01*
X175919890Y-64170213D01*
X175794951Y-64342179D01*
X175698444Y-64531585D01*
X175632753Y-64733760D01*
X175599500Y-64943713D01*
X175599500Y-65156286D01*
X175632753Y-65366239D01*
X175698444Y-65568414D01*
X175794951Y-65757820D01*
X175919890Y-65929786D01*
X176070213Y-66080109D01*
X176242182Y-66205050D01*
X176250946Y-66209516D01*
X176301742Y-66257491D01*
X176318536Y-66325312D01*
X176295998Y-66391447D01*
X176250946Y-66430484D01*
X176242182Y-66434949D01*
X176070213Y-66559890D01*
X175919890Y-66710213D01*
X175794951Y-66882179D01*
X175698444Y-67071585D01*
X175632753Y-67273760D01*
X175599500Y-67483713D01*
X175599500Y-67696286D01*
X175624834Y-67856243D01*
X175632754Y-67906243D01*
X175650818Y-67961839D01*
X175698444Y-68108414D01*
X175794951Y-68297820D01*
X175919890Y-68469786D01*
X176070213Y-68620109D01*
X176242182Y-68745050D01*
X176250946Y-68749516D01*
X176301742Y-68797491D01*
X176318536Y-68865312D01*
X176295998Y-68931447D01*
X176250946Y-68970484D01*
X176242182Y-68974949D01*
X176070213Y-69099890D01*
X175919890Y-69250213D01*
X175794951Y-69422179D01*
X175698444Y-69611585D01*
X175632753Y-69813760D01*
X175599500Y-70023713D01*
X175599500Y-70236286D01*
X175632753Y-70446239D01*
X175698444Y-70648414D01*
X175794951Y-70837820D01*
X175919890Y-71009786D01*
X176070213Y-71160109D01*
X176242179Y-71285048D01*
X176242181Y-71285049D01*
X176242184Y-71285051D01*
X176251493Y-71289794D01*
X176302290Y-71337766D01*
X176319087Y-71405587D01*
X176296552Y-71471722D01*
X176251505Y-71510760D01*
X176242446Y-71515376D01*
X176242440Y-71515380D01*
X176188282Y-71554727D01*
X176188282Y-71554728D01*
X176820591Y-72187037D01*
X176757007Y-72204075D01*
X176642993Y-72269901D01*
X176549901Y-72362993D01*
X176484075Y-72477007D01*
X176467037Y-72540591D01*
X175834728Y-71908282D01*
X175834727Y-71908282D01*
X175795380Y-71962439D01*
X175698904Y-72151782D01*
X175633242Y-72353869D01*
X175633242Y-72353872D01*
X175600000Y-72563753D01*
X175600000Y-72776246D01*
X175633242Y-72986127D01*
X175633242Y-72986130D01*
X175698904Y-73188217D01*
X175795375Y-73377550D01*
X175834728Y-73431716D01*
X176467037Y-72799408D01*
X176484075Y-72862993D01*
X176549901Y-72977007D01*
X176642993Y-73070099D01*
X176757007Y-73135925D01*
X176820590Y-73152962D01*
X176188282Y-73785269D01*
X176188282Y-73785270D01*
X176242452Y-73824626D01*
X176242451Y-73824626D01*
X176251495Y-73829234D01*
X176302292Y-73877208D01*
X176319087Y-73945029D01*
X176296550Y-74011164D01*
X176251499Y-74050202D01*
X176242182Y-74054949D01*
X176070213Y-74179890D01*
X175919890Y-74330213D01*
X175794951Y-74502179D01*
X175698444Y-74691585D01*
X175632753Y-74893760D01*
X175599500Y-75103713D01*
X175599500Y-75316286D01*
X175632753Y-75526239D01*
X175698444Y-75728414D01*
X175794951Y-75917820D01*
X175919890Y-76089786D01*
X176070213Y-76240109D01*
X176242182Y-76365050D01*
X176250946Y-76369516D01*
X176301742Y-76417491D01*
X176318536Y-76485312D01*
X176295998Y-76551447D01*
X176250946Y-76590484D01*
X176242182Y-76594949D01*
X176070213Y-76719890D01*
X175919890Y-76870213D01*
X175794951Y-77042179D01*
X175698444Y-77231585D01*
X175632753Y-77433760D01*
X175599500Y-77643713D01*
X175599500Y-77856286D01*
X175624834Y-78016243D01*
X175632754Y-78066243D01*
X175695676Y-78259897D01*
X175698444Y-78268414D01*
X175794951Y-78457820D01*
X175919890Y-78629786D01*
X176070213Y-78780109D01*
X176242182Y-78905050D01*
X176250946Y-78909516D01*
X176301742Y-78957491D01*
X176318536Y-79025312D01*
X176295998Y-79091447D01*
X176250946Y-79130484D01*
X176242182Y-79134949D01*
X176070213Y-79259890D01*
X175919890Y-79410213D01*
X175794951Y-79582179D01*
X175698444Y-79771585D01*
X175632753Y-79973760D01*
X175599500Y-80183713D01*
X175599500Y-80396286D01*
X175632753Y-80606239D01*
X175632753Y-80606241D01*
X175632754Y-80606243D01*
X175693928Y-80794517D01*
X175698444Y-80808414D01*
X175794951Y-80997820D01*
X175919890Y-81169786D01*
X176070213Y-81320109D01*
X176242182Y-81445050D01*
X176250946Y-81449516D01*
X176301742Y-81497491D01*
X176318536Y-81565312D01*
X176295998Y-81631447D01*
X176250946Y-81670484D01*
X176242182Y-81674949D01*
X176070213Y-81799890D01*
X175919890Y-81950213D01*
X175794951Y-82122179D01*
X175698444Y-82311585D01*
X175632753Y-82513760D01*
X175599500Y-82723713D01*
X175599500Y-82936286D01*
X175632753Y-83146239D01*
X175698444Y-83348414D01*
X175794951Y-83537820D01*
X175919890Y-83709786D01*
X176070213Y-83860109D01*
X176242182Y-83985050D01*
X176250946Y-83989516D01*
X176301742Y-84037491D01*
X176318536Y-84105312D01*
X176295998Y-84171447D01*
X176250946Y-84210484D01*
X176242182Y-84214949D01*
X176070213Y-84339890D01*
X175919890Y-84490213D01*
X175794951Y-84662179D01*
X175698444Y-84851585D01*
X175632753Y-85053760D01*
X175599500Y-85263713D01*
X175599500Y-85476286D01*
X175632753Y-85686239D01*
X175698444Y-85888414D01*
X175794951Y-86077820D01*
X175919890Y-86249786D01*
X176070213Y-86400109D01*
X176242182Y-86525050D01*
X176250946Y-86529516D01*
X176301742Y-86577491D01*
X176318536Y-86645312D01*
X176295998Y-86711447D01*
X176250946Y-86750484D01*
X176242182Y-86754949D01*
X176070213Y-86879890D01*
X175919890Y-87030213D01*
X175794951Y-87202179D01*
X175698444Y-87391585D01*
X175632753Y-87593760D01*
X175599500Y-87803713D01*
X175599500Y-88016286D01*
X175632753Y-88226239D01*
X175698444Y-88428414D01*
X175794951Y-88617820D01*
X175919890Y-88789786D01*
X176070213Y-88940109D01*
X176242182Y-89065050D01*
X176250946Y-89069516D01*
X176301742Y-89117491D01*
X176318536Y-89185312D01*
X176295998Y-89251447D01*
X176250946Y-89290484D01*
X176242182Y-89294949D01*
X176070213Y-89419890D01*
X175919890Y-89570213D01*
X175794951Y-89742179D01*
X175698444Y-89931585D01*
X175632753Y-90133760D01*
X175599500Y-90343713D01*
X175599500Y-90556286D01*
X175632753Y-90766240D01*
X175690501Y-90943970D01*
X175692496Y-91013811D01*
X175656416Y-91073644D01*
X175593715Y-91104472D01*
X175524300Y-91096507D01*
X175484889Y-91069969D01*
X164486819Y-80071899D01*
X164453334Y-80010576D01*
X164450500Y-79984218D01*
X164450500Y-56414141D01*
X164470185Y-56347102D01*
X164522989Y-56301347D01*
X164531149Y-56297966D01*
X164542331Y-56293796D01*
X164657546Y-56207546D01*
X164743796Y-56092331D01*
X164794091Y-55957483D01*
X164800500Y-55897873D01*
X164800499Y-55873979D01*
X164803330Y-55860963D01*
X164813940Y-55841525D01*
X164820179Y-55820275D01*
X164836803Y-55799643D01*
X164836808Y-55799636D01*
X164836811Y-55799634D01*
X164836818Y-55799626D01*
X165507037Y-55129408D01*
X165524075Y-55192993D01*
X165589901Y-55307007D01*
X165682993Y-55400099D01*
X165797007Y-55465925D01*
X165860590Y-55482962D01*
X165228282Y-56115269D01*
X165228282Y-56115270D01*
X165282449Y-56154624D01*
X165471782Y-56251095D01*
X165673870Y-56316757D01*
X165883754Y-56350000D01*
X166096246Y-56350000D01*
X166306127Y-56316757D01*
X166306130Y-56316757D01*
X166508217Y-56251095D01*
X166697554Y-56154622D01*
X166751716Y-56115270D01*
X166751717Y-56115270D01*
X166119408Y-55482962D01*
X166182993Y-55465925D01*
X166297007Y-55400099D01*
X166390099Y-55307007D01*
X166455925Y-55192993D01*
X166472962Y-55129408D01*
X167105270Y-55761717D01*
X167105270Y-55761716D01*
X167144622Y-55707555D01*
X167149232Y-55698507D01*
X167197205Y-55647709D01*
X167265025Y-55630912D01*
X167331161Y-55653447D01*
X167370204Y-55698504D01*
X167374949Y-55707817D01*
X167499890Y-55879786D01*
X167650213Y-56030109D01*
X167822179Y-56155048D01*
X167822181Y-56155049D01*
X167822184Y-56155051D01*
X168011588Y-56251557D01*
X168213757Y-56317246D01*
X168423713Y-56350500D01*
X168423714Y-56350500D01*
X168636286Y-56350500D01*
X168636287Y-56350500D01*
X168846243Y-56317246D01*
X169048412Y-56251557D01*
X169237816Y-56155051D01*
X169274439Y-56128443D01*
X169409786Y-56030109D01*
X169409788Y-56030106D01*
X169409792Y-56030104D01*
X169560104Y-55879792D01*
X169560106Y-55879788D01*
X169560109Y-55879786D01*
X169685048Y-55707820D01*
X169685050Y-55707817D01*
X169685051Y-55707816D01*
X169689514Y-55699054D01*
X169737488Y-55648259D01*
X169805308Y-55631463D01*
X169871444Y-55653999D01*
X169910486Y-55699056D01*
X169914951Y-55707820D01*
X170039890Y-55879786D01*
X170190213Y-56030109D01*
X170362179Y-56155048D01*
X170362181Y-56155049D01*
X170362184Y-56155051D01*
X170551588Y-56251557D01*
X170753757Y-56317246D01*
X170963713Y-56350500D01*
X170963714Y-56350500D01*
X171176286Y-56350500D01*
X171176287Y-56350500D01*
X171386243Y-56317246D01*
X171588412Y-56251557D01*
X171777816Y-56155051D01*
X171814439Y-56128443D01*
X171949786Y-56030109D01*
X171949788Y-56030106D01*
X171949792Y-56030104D01*
X172100104Y-55879792D01*
X172100106Y-55879788D01*
X172100109Y-55879786D01*
X172225048Y-55707820D01*
X172225050Y-55707817D01*
X172225051Y-55707816D01*
X172321557Y-55518412D01*
X172387246Y-55316243D01*
X172420500Y-55106287D01*
X172420500Y-54893713D01*
X172387246Y-54683757D01*
X172321557Y-54481588D01*
X172225051Y-54292184D01*
X172225049Y-54292181D01*
X172225048Y-54292179D01*
X172100109Y-54120213D01*
X171949786Y-53969890D01*
X171777820Y-53844951D01*
X171588414Y-53748444D01*
X171588413Y-53748443D01*
X171588412Y-53748443D01*
X171386243Y-53682754D01*
X171386241Y-53682753D01*
X171386240Y-53682753D01*
X171224957Y-53657208D01*
X171176287Y-53649500D01*
X170963713Y-53649500D01*
X170915042Y-53657208D01*
X170753760Y-53682753D01*
X170551585Y-53748444D01*
X170362179Y-53844951D01*
X170190213Y-53969890D01*
X170039890Y-54120213D01*
X169914949Y-54292182D01*
X169910484Y-54300946D01*
X169862509Y-54351742D01*
X169794688Y-54368536D01*
X169728553Y-54345998D01*
X169689516Y-54300946D01*
X169685050Y-54292182D01*
X169560109Y-54120213D01*
X169409786Y-53969890D01*
X169237820Y-53844951D01*
X169048414Y-53748444D01*
X169048413Y-53748443D01*
X169048412Y-53748443D01*
X168846243Y-53682754D01*
X168846241Y-53682753D01*
X168846240Y-53682753D01*
X168684957Y-53657208D01*
X168636287Y-53649500D01*
X168423713Y-53649500D01*
X168375042Y-53657208D01*
X168213760Y-53682753D01*
X168011585Y-53748444D01*
X167822179Y-53844951D01*
X167650213Y-53969890D01*
X167499890Y-54120213D01*
X167374949Y-54292182D01*
X167370202Y-54301499D01*
X167322227Y-54352293D01*
X167254405Y-54369087D01*
X167188271Y-54346548D01*
X167149234Y-54301495D01*
X167144626Y-54292452D01*
X167105270Y-54238282D01*
X167105269Y-54238282D01*
X166472962Y-54870590D01*
X166455925Y-54807007D01*
X166390099Y-54692993D01*
X166297007Y-54599901D01*
X166182993Y-54534075D01*
X166119409Y-54517037D01*
X166751716Y-53884728D01*
X166697550Y-53845375D01*
X166508217Y-53748904D01*
X166306129Y-53683242D01*
X166096246Y-53650000D01*
X165883754Y-53650000D01*
X165673872Y-53683242D01*
X165673869Y-53683242D01*
X165471782Y-53748904D01*
X165282439Y-53845380D01*
X165228282Y-53884727D01*
X165228282Y-53884728D01*
X165860591Y-54517037D01*
X165797007Y-54534075D01*
X165682993Y-54599901D01*
X165589901Y-54692993D01*
X165524075Y-54807007D01*
X165507037Y-54870591D01*
X164836818Y-54200372D01*
X164803333Y-54139049D01*
X164803330Y-54139036D01*
X164800499Y-54126015D01*
X164800499Y-54102128D01*
X164794091Y-54042517D01*
X164763392Y-53960208D01*
X164743798Y-53907673D01*
X164743793Y-53907664D01*
X164657547Y-53792455D01*
X164657544Y-53792452D01*
X164542335Y-53706206D01*
X164542328Y-53706202D01*
X164407482Y-53655908D01*
X164407483Y-53655908D01*
X164347883Y-53649501D01*
X164347881Y-53649500D01*
X164347873Y-53649500D01*
X164347864Y-53649500D01*
X162552129Y-53649500D01*
X162552123Y-53649501D01*
X162492516Y-53655908D01*
X162357671Y-53706202D01*
X162357664Y-53706206D01*
X162242455Y-53792452D01*
X162242452Y-53792455D01*
X162156206Y-53907664D01*
X162156202Y-53907671D01*
X162105908Y-54042517D01*
X162099501Y-54102116D01*
X162099500Y-54102135D01*
X162099500Y-55897870D01*
X162099501Y-55897876D01*
X162105908Y-55957483D01*
X162156202Y-56092328D01*
X162156206Y-56092335D01*
X162242452Y-56207544D01*
X162242455Y-56207547D01*
X162357665Y-56293794D01*
X162357667Y-56293794D01*
X162357669Y-56293796D01*
X162368830Y-56297958D01*
X162424764Y-56339826D01*
X162449184Y-56405289D01*
X162449500Y-56414141D01*
X162449500Y-80548541D01*
X162449500Y-80548543D01*
X162449499Y-80548543D01*
X162487947Y-80741829D01*
X162487950Y-80741839D01*
X162563364Y-80923907D01*
X162563371Y-80923920D01*
X162672860Y-81087781D01*
X162672863Y-81087785D01*
X162816537Y-81231459D01*
X162816559Y-81231479D01*
X175209735Y-93624655D01*
X175209764Y-93624686D01*
X175352214Y-93767136D01*
X175352218Y-93767139D01*
X175516079Y-93876628D01*
X175516092Y-93876635D01*
X175644833Y-93929961D01*
X175687744Y-93947735D01*
X175698164Y-93952051D01*
X175794812Y-93971275D01*
X175891459Y-93990500D01*
X175891460Y-93990500D01*
X175995901Y-93990500D01*
X176001966Y-93991098D01*
X176028939Y-94001992D01*
X176056839Y-94010185D01*
X176065910Y-94016925D01*
X176066751Y-94017265D01*
X176067176Y-94017866D01*
X176069365Y-94019493D01*
X176242182Y-94145050D01*
X176250946Y-94149516D01*
X176301742Y-94197491D01*
X176318536Y-94265312D01*
X176295998Y-94331447D01*
X176250946Y-94370484D01*
X176242182Y-94374949D01*
X176070213Y-94499890D01*
X175919890Y-94650213D01*
X175794951Y-94822179D01*
X175698444Y-95011585D01*
X175632753Y-95213760D01*
X175599500Y-95423713D01*
X175599500Y-95636286D01*
X175632753Y-95846239D01*
X175698444Y-96048414D01*
X175794951Y-96237820D01*
X175919890Y-96409786D01*
X176070213Y-96560109D01*
X176242179Y-96685048D01*
X176242181Y-96685049D01*
X176242184Y-96685051D01*
X176251493Y-96689794D01*
X176302290Y-96737766D01*
X176319087Y-96805587D01*
X176296552Y-96871722D01*
X176251505Y-96910760D01*
X176242446Y-96915376D01*
X176242440Y-96915380D01*
X176188282Y-96954727D01*
X176188282Y-96954728D01*
X176820591Y-97587037D01*
X176757007Y-97604075D01*
X176642993Y-97669901D01*
X176549901Y-97762993D01*
X176484075Y-97877007D01*
X176467037Y-97940591D01*
X175834728Y-97308282D01*
X175834727Y-97308282D01*
X175795380Y-97362439D01*
X175698904Y-97551782D01*
X175633242Y-97753869D01*
X175633242Y-97753872D01*
X175600000Y-97963753D01*
X175600000Y-98176246D01*
X175633242Y-98386127D01*
X175633242Y-98386130D01*
X175698904Y-98588217D01*
X175795375Y-98777550D01*
X175834728Y-98831716D01*
X176467037Y-98199408D01*
X176484075Y-98262993D01*
X176549901Y-98377007D01*
X176642993Y-98470099D01*
X176757007Y-98535925D01*
X176820590Y-98552962D01*
X176188282Y-99185269D01*
X176188282Y-99185270D01*
X176242452Y-99224626D01*
X176242451Y-99224626D01*
X176251495Y-99229234D01*
X176302292Y-99277208D01*
X176319087Y-99345029D01*
X176296550Y-99411164D01*
X176251499Y-99450202D01*
X176242182Y-99454949D01*
X176070213Y-99579890D01*
X175919890Y-99730213D01*
X175794951Y-99902179D01*
X175698444Y-100091585D01*
X175632753Y-100293760D01*
X175599500Y-100503713D01*
X175599500Y-100716286D01*
X175632753Y-100926239D01*
X175698444Y-101128414D01*
X175794951Y-101317820D01*
X175919890Y-101489786D01*
X176070213Y-101640109D01*
X176242182Y-101765050D01*
X176250946Y-101769516D01*
X176301742Y-101817491D01*
X176318536Y-101885312D01*
X176295998Y-101951447D01*
X176250946Y-101990484D01*
X176242182Y-101994949D01*
X176070213Y-102119890D01*
X175919890Y-102270213D01*
X175794951Y-102442179D01*
X175698444Y-102631585D01*
X175632753Y-102833760D01*
X175599500Y-103043713D01*
X175599500Y-103256286D01*
X175628032Y-103436433D01*
X175632754Y-103466243D01*
X175685153Y-103627511D01*
X175698444Y-103668414D01*
X175794951Y-103857820D01*
X175919890Y-104029786D01*
X176070213Y-104180109D01*
X176242179Y-104305048D01*
X176242181Y-104305049D01*
X176242184Y-104305051D01*
X176431588Y-104401557D01*
X176633757Y-104467246D01*
X176843713Y-104500500D01*
X176843714Y-104500500D01*
X176848525Y-104501262D01*
X176848357Y-104502321D01*
X176908829Y-104525362D01*
X176921503Y-104536423D01*
X177522898Y-105137819D01*
X177556383Y-105199142D01*
X177551399Y-105268834D01*
X177509527Y-105324767D01*
X177444063Y-105349184D01*
X177435217Y-105349500D01*
X129274500Y-105349500D01*
X129207461Y-105329815D01*
X129161706Y-105277011D01*
X129150500Y-105225500D01*
X129150500Y-51524500D01*
X129170185Y-51457461D01*
X129222989Y-51411706D01*
X129274500Y-51400500D01*
X148820325Y-51400500D01*
X148887364Y-51420185D01*
G37*
%TD.AperFunction*%
%TA.AperFunction,Conductor*%
G36*
X178505702Y-53921068D02*
G01*
X178512180Y-53927100D01*
X180463181Y-55878101D01*
X180496666Y-55939424D01*
X180499500Y-55965782D01*
X180499500Y-67768541D01*
X180499500Y-67768543D01*
X180499499Y-67768543D01*
X180537947Y-67961829D01*
X180537950Y-67961839D01*
X180613364Y-68143907D01*
X180613371Y-68143920D01*
X180722859Y-68307780D01*
X180722860Y-68307781D01*
X180722861Y-68307782D01*
X180862218Y-68447139D01*
X180862219Y-68447139D01*
X180869286Y-68454206D01*
X180869285Y-68454206D01*
X180869288Y-68454208D01*
X192702860Y-80287781D01*
X192702861Y-80287782D01*
X192811365Y-80396286D01*
X192842219Y-80427140D01*
X192979853Y-80519104D01*
X193006086Y-80536632D01*
X193053432Y-80556243D01*
X193188164Y-80612051D01*
X193381454Y-80650499D01*
X193381457Y-80650500D01*
X193381459Y-80650500D01*
X193578540Y-80650500D01*
X193637111Y-80650500D01*
X193704150Y-80670185D01*
X193724792Y-80686819D01*
X193832490Y-80794517D01*
X194023567Y-80933343D01*
X194051980Y-80947820D01*
X194234003Y-81040566D01*
X194234005Y-81040566D01*
X194234008Y-81040568D01*
X194354412Y-81079689D01*
X194458631Y-81113553D01*
X194691903Y-81150500D01*
X194691908Y-81150500D01*
X194928097Y-81150500D01*
X195161368Y-81113553D01*
X195240673Y-81087785D01*
X195385992Y-81040568D01*
X195596433Y-80933343D01*
X195787510Y-80794517D01*
X195954517Y-80627510D01*
X195979682Y-80592872D01*
X196035011Y-80550207D01*
X196104625Y-80544228D01*
X196166420Y-80576833D01*
X196180315Y-80592870D01*
X196205483Y-80627510D01*
X196372490Y-80794517D01*
X196563567Y-80933343D01*
X196591980Y-80947820D01*
X196774003Y-81040566D01*
X196774005Y-81040566D01*
X196774008Y-81040568D01*
X196894412Y-81079689D01*
X196998631Y-81113553D01*
X197231903Y-81150500D01*
X197231908Y-81150500D01*
X197468097Y-81150500D01*
X197701368Y-81113553D01*
X197780673Y-81087785D01*
X197925992Y-81040568D01*
X198136433Y-80933343D01*
X198302616Y-80812602D01*
X198368420Y-80789124D01*
X198436474Y-80804949D01*
X198485169Y-80855055D01*
X198499500Y-80912922D01*
X198499500Y-95534217D01*
X198479815Y-95601256D01*
X198463181Y-95621898D01*
X190372899Y-103712181D01*
X190311576Y-103745666D01*
X190285218Y-103748500D01*
X184649976Y-103748500D01*
X184582937Y-103728815D01*
X184537182Y-103676011D01*
X184527238Y-103606853D01*
X184549656Y-103551616D01*
X184633343Y-103436433D01*
X184740568Y-103225992D01*
X184813553Y-103001368D01*
X184850500Y-102768097D01*
X184850500Y-102531902D01*
X184813553Y-102298631D01*
X184740566Y-102074003D01*
X184648062Y-101892455D01*
X184633343Y-101863567D01*
X184494517Y-101672490D01*
X184327510Y-101505483D01*
X184136433Y-101366657D01*
X183925996Y-101259433D01*
X183701368Y-101186446D01*
X183468097Y-101149500D01*
X183468092Y-101149500D01*
X183231908Y-101149500D01*
X183231903Y-101149500D01*
X182998631Y-101186446D01*
X182774003Y-101259433D01*
X182563566Y-101366657D01*
X182462917Y-101439784D01*
X182372490Y-101505483D01*
X182372488Y-101505485D01*
X182372487Y-101505485D01*
X182205485Y-101672487D01*
X182205485Y-101672488D01*
X182205483Y-101672490D01*
X182196873Y-101684341D01*
X182066657Y-101863566D01*
X181959433Y-102074003D01*
X181886446Y-102298631D01*
X181849500Y-102531902D01*
X181849500Y-102768097D01*
X181886446Y-103001368D01*
X181959433Y-103225996D01*
X182066657Y-103436433D01*
X182150342Y-103551616D01*
X182173822Y-103617420D01*
X182157997Y-103685474D01*
X182107891Y-103734169D01*
X182050024Y-103748500D01*
X179014783Y-103748500D01*
X178947744Y-103728815D01*
X178927102Y-103712181D01*
X178336423Y-103121502D01*
X178302938Y-103060179D01*
X178300655Y-103044697D01*
X178300500Y-103043718D01*
X178300500Y-103043713D01*
X178267246Y-102833757D01*
X178201557Y-102631588D01*
X178105051Y-102442184D01*
X178105049Y-102442181D01*
X178105048Y-102442179D01*
X177980109Y-102270213D01*
X177829786Y-102119890D01*
X177657820Y-101994951D01*
X177657115Y-101994591D01*
X177649054Y-101990485D01*
X177598259Y-101942512D01*
X177581463Y-101874692D01*
X177603999Y-101808556D01*
X177649054Y-101769515D01*
X177657816Y-101765051D01*
X177768905Y-101684341D01*
X177829786Y-101640109D01*
X177829788Y-101640106D01*
X177829792Y-101640104D01*
X177980104Y-101489792D01*
X177980106Y-101489788D01*
X177980109Y-101489786D01*
X178105048Y-101317820D01*
X178105047Y-101317820D01*
X178105051Y-101317816D01*
X178201557Y-101128412D01*
X178267246Y-100926243D01*
X178300500Y-100716287D01*
X178300500Y-100503713D01*
X178267246Y-100293757D01*
X178201557Y-100091588D01*
X178105051Y-99902184D01*
X178105049Y-99902181D01*
X178105048Y-99902179D01*
X177980109Y-99730213D01*
X177829786Y-99579890D01*
X177657817Y-99454949D01*
X177648504Y-99450204D01*
X177597707Y-99402230D01*
X177580912Y-99334409D01*
X177603449Y-99268274D01*
X177648507Y-99229232D01*
X177657555Y-99224622D01*
X177711716Y-99185270D01*
X177711717Y-99185270D01*
X177079408Y-98552962D01*
X177142993Y-98535925D01*
X177257007Y-98470099D01*
X177350099Y-98377007D01*
X177415925Y-98262993D01*
X177432962Y-98199408D01*
X178065270Y-98831717D01*
X178065270Y-98831716D01*
X178104622Y-98777554D01*
X178201095Y-98588217D01*
X178266757Y-98386130D01*
X178266757Y-98386127D01*
X178300000Y-98176246D01*
X178300000Y-97963753D01*
X178266757Y-97753872D01*
X178266757Y-97753869D01*
X178201095Y-97551782D01*
X178104624Y-97362449D01*
X178065270Y-97308282D01*
X178065269Y-97308282D01*
X177432962Y-97940590D01*
X177415925Y-97877007D01*
X177350099Y-97762993D01*
X177257007Y-97669901D01*
X177142993Y-97604075D01*
X177079409Y-97587037D01*
X177711716Y-96954728D01*
X177657547Y-96915373D01*
X177657547Y-96915372D01*
X177648500Y-96910763D01*
X177597706Y-96862788D01*
X177580912Y-96794966D01*
X177603451Y-96728832D01*
X177648508Y-96689793D01*
X177657816Y-96685051D01*
X177737007Y-96627515D01*
X177829786Y-96560109D01*
X177829788Y-96560106D01*
X177829792Y-96560104D01*
X177980104Y-96409792D01*
X177980106Y-96409788D01*
X177980109Y-96409786D01*
X178105048Y-96237820D01*
X178105047Y-96237820D01*
X178105051Y-96237816D01*
X178201557Y-96048412D01*
X178267246Y-95846243D01*
X178300500Y-95636287D01*
X178300500Y-95423713D01*
X178267246Y-95213757D01*
X178201557Y-95011588D01*
X178105051Y-94822184D01*
X178105049Y-94822181D01*
X178105048Y-94822179D01*
X177980109Y-94650213D01*
X177829786Y-94499890D01*
X177657820Y-94374951D01*
X177657115Y-94374591D01*
X177649054Y-94370485D01*
X177598259Y-94322512D01*
X177581463Y-94254692D01*
X177603999Y-94188556D01*
X177649054Y-94149515D01*
X177657816Y-94145051D01*
X177726640Y-94095048D01*
X177829786Y-94020109D01*
X177829788Y-94020106D01*
X177829792Y-94020104D01*
X177980104Y-93869792D01*
X177980106Y-93869788D01*
X177980109Y-93869786D01*
X178105048Y-93697820D01*
X178105047Y-93697820D01*
X178105051Y-93697816D01*
X178201557Y-93508412D01*
X178267246Y-93306243D01*
X178300500Y-93096287D01*
X178300500Y-92883713D01*
X178267246Y-92673757D01*
X178201557Y-92471588D01*
X178105051Y-92282184D01*
X178105049Y-92282181D01*
X178105048Y-92282179D01*
X177980109Y-92110213D01*
X177829786Y-91959890D01*
X177657820Y-91834951D01*
X177652725Y-91832355D01*
X177649054Y-91830485D01*
X177598259Y-91782512D01*
X177581463Y-91714692D01*
X177603999Y-91648556D01*
X177649054Y-91609515D01*
X177657816Y-91605051D01*
X177726640Y-91555048D01*
X177829786Y-91480109D01*
X177829788Y-91480106D01*
X177829792Y-91480104D01*
X177980104Y-91329792D01*
X177980106Y-91329788D01*
X177980109Y-91329786D01*
X178105048Y-91157820D01*
X178105047Y-91157820D01*
X178105051Y-91157816D01*
X178201557Y-90968412D01*
X178267246Y-90766243D01*
X178300500Y-90556287D01*
X178300500Y-90343713D01*
X178267246Y-90133757D01*
X178201557Y-89931588D01*
X178105051Y-89742184D01*
X178105049Y-89742181D01*
X178105048Y-89742179D01*
X177980109Y-89570213D01*
X177829786Y-89419890D01*
X177657820Y-89294951D01*
X177657115Y-89294591D01*
X177649054Y-89290485D01*
X177598259Y-89242512D01*
X177581463Y-89174692D01*
X177603999Y-89108556D01*
X177649054Y-89069515D01*
X177657816Y-89065051D01*
X177726640Y-89015048D01*
X177829786Y-88940109D01*
X177829788Y-88940106D01*
X177829792Y-88940104D01*
X177980104Y-88789792D01*
X177980106Y-88789788D01*
X177980109Y-88789786D01*
X178105048Y-88617820D01*
X178105047Y-88617820D01*
X178105051Y-88617816D01*
X178201557Y-88428412D01*
X178267246Y-88226243D01*
X178300500Y-88016287D01*
X178300500Y-87803713D01*
X178267246Y-87593757D01*
X178201557Y-87391588D01*
X178105051Y-87202184D01*
X178105049Y-87202181D01*
X178105048Y-87202179D01*
X177980109Y-87030213D01*
X177829786Y-86879890D01*
X177657820Y-86754951D01*
X177657115Y-86754591D01*
X177649054Y-86750485D01*
X177598259Y-86702512D01*
X177581463Y-86634692D01*
X177603999Y-86568556D01*
X177649054Y-86529515D01*
X177657816Y-86525051D01*
X177726640Y-86475048D01*
X177829786Y-86400109D01*
X177829788Y-86400106D01*
X177829792Y-86400104D01*
X177980104Y-86249792D01*
X177980106Y-86249788D01*
X177980109Y-86249786D01*
X178105048Y-86077820D01*
X178105047Y-86077820D01*
X178105051Y-86077816D01*
X178201557Y-85888412D01*
X178267246Y-85686243D01*
X178300500Y-85476287D01*
X178300500Y-85263713D01*
X178267246Y-85053757D01*
X178201557Y-84851588D01*
X178105051Y-84662184D01*
X178105049Y-84662181D01*
X178105048Y-84662179D01*
X177980109Y-84490213D01*
X177829786Y-84339890D01*
X177657820Y-84214951D01*
X177657115Y-84214591D01*
X177649054Y-84210485D01*
X177598259Y-84162512D01*
X177581463Y-84094692D01*
X177603999Y-84028556D01*
X177649054Y-83989515D01*
X177657816Y-83985051D01*
X177726640Y-83935048D01*
X177829786Y-83860109D01*
X177829788Y-83860106D01*
X177829792Y-83860104D01*
X177980104Y-83709792D01*
X177980106Y-83709788D01*
X177980109Y-83709786D01*
X178105048Y-83537820D01*
X178105047Y-83537820D01*
X178105051Y-83537816D01*
X178201557Y-83348412D01*
X178267246Y-83146243D01*
X178300500Y-82936287D01*
X178300500Y-82723713D01*
X178267246Y-82513757D01*
X178201557Y-82311588D01*
X178105051Y-82122184D01*
X178105049Y-82122181D01*
X178105048Y-82122179D01*
X177980109Y-81950213D01*
X177829786Y-81799890D01*
X177657820Y-81674951D01*
X177657115Y-81674591D01*
X177649054Y-81670485D01*
X177598259Y-81622512D01*
X177581463Y-81554692D01*
X177603999Y-81488556D01*
X177649054Y-81449515D01*
X177657816Y-81445051D01*
X177726640Y-81395048D01*
X177829786Y-81320109D01*
X177829788Y-81320106D01*
X177829792Y-81320104D01*
X177980104Y-81169792D01*
X177980106Y-81169788D01*
X177980109Y-81169786D01*
X178105048Y-80997820D01*
X178105047Y-80997820D01*
X178105051Y-80997816D01*
X178201557Y-80808412D01*
X178217803Y-80758414D01*
X178241065Y-80686819D01*
X178267246Y-80606243D01*
X178300500Y-80396287D01*
X178300500Y-80183713D01*
X178267246Y-79973757D01*
X178201557Y-79771588D01*
X178105654Y-79583367D01*
X178105050Y-79582181D01*
X178068553Y-79531947D01*
X181850000Y-79531947D01*
X181850000Y-79768052D01*
X181886934Y-80001247D01*
X181959897Y-80225802D01*
X182067087Y-80436174D01*
X182127338Y-80519104D01*
X182127340Y-80519105D01*
X182867037Y-79779408D01*
X182884075Y-79842993D01*
X182949901Y-79957007D01*
X183042993Y-80050099D01*
X183157007Y-80115925D01*
X183220590Y-80132962D01*
X182480893Y-80872658D01*
X182563828Y-80932914D01*
X182774197Y-81040102D01*
X182998752Y-81113065D01*
X182998751Y-81113065D01*
X183231948Y-81150000D01*
X183468052Y-81150000D01*
X183701247Y-81113065D01*
X183925802Y-81040102D01*
X184136163Y-80932918D01*
X184136169Y-80932914D01*
X184219104Y-80872658D01*
X184219105Y-80872658D01*
X183479408Y-80132962D01*
X183542993Y-80115925D01*
X183657007Y-80050099D01*
X183750099Y-79957007D01*
X183815925Y-79842993D01*
X183832962Y-79779409D01*
X184572657Y-80519104D01*
X184610275Y-80516144D01*
X184629735Y-80516144D01*
X184667340Y-80519104D01*
X185407037Y-79779408D01*
X185424075Y-79842993D01*
X185489901Y-79957007D01*
X185582993Y-80050099D01*
X185697007Y-80115925D01*
X185760590Y-80132962D01*
X185020893Y-80872658D01*
X185103828Y-80932914D01*
X185314197Y-81040102D01*
X185538752Y-81113065D01*
X185538751Y-81113065D01*
X185771948Y-81150000D01*
X186008052Y-81150000D01*
X186241247Y-81113065D01*
X186465802Y-81040102D01*
X186676163Y-80932918D01*
X186676169Y-80932914D01*
X186759104Y-80872658D01*
X186759105Y-80872658D01*
X186019408Y-80132962D01*
X186082993Y-80115925D01*
X186197007Y-80050099D01*
X186290099Y-79957007D01*
X186355925Y-79842993D01*
X186372962Y-79779408D01*
X187112658Y-80519105D01*
X187112658Y-80519104D01*
X187172914Y-80436169D01*
X187172918Y-80436163D01*
X187280102Y-80225802D01*
X187353065Y-80001247D01*
X187390000Y-79768052D01*
X187390000Y-79531947D01*
X187353065Y-79298752D01*
X187280102Y-79074197D01*
X187172914Y-78863828D01*
X187112658Y-78780894D01*
X187112658Y-78780893D01*
X186372962Y-79520590D01*
X186355925Y-79457007D01*
X186290099Y-79342993D01*
X186197007Y-79249901D01*
X186082993Y-79184075D01*
X186019409Y-79167037D01*
X186759105Y-78427340D01*
X186759104Y-78427338D01*
X186676174Y-78367087D01*
X186465802Y-78259897D01*
X186241247Y-78186934D01*
X186241248Y-78186934D01*
X186008052Y-78150000D01*
X185771948Y-78150000D01*
X185538752Y-78186934D01*
X185314197Y-78259897D01*
X185103830Y-78367084D01*
X185020894Y-78427340D01*
X185760591Y-79167037D01*
X185697007Y-79184075D01*
X185582993Y-79249901D01*
X185489901Y-79342993D01*
X185424075Y-79457007D01*
X185407037Y-79520591D01*
X184667340Y-78780894D01*
X184629733Y-78783854D01*
X184610276Y-78783854D01*
X184572658Y-78780893D01*
X183832962Y-79520590D01*
X183815925Y-79457007D01*
X183750099Y-79342993D01*
X183657007Y-79249901D01*
X183542993Y-79184075D01*
X183479409Y-79167037D01*
X184219105Y-78427340D01*
X184219104Y-78427339D01*
X184136174Y-78367087D01*
X183925802Y-78259897D01*
X183701247Y-78186934D01*
X183701248Y-78186934D01*
X183468052Y-78150000D01*
X183231948Y-78150000D01*
X182998752Y-78186934D01*
X182774197Y-78259897D01*
X182563830Y-78367084D01*
X182480894Y-78427340D01*
X183220591Y-79167037D01*
X183157007Y-79184075D01*
X183042993Y-79249901D01*
X182949901Y-79342993D01*
X182884075Y-79457007D01*
X182867037Y-79520590D01*
X182127340Y-78780894D01*
X182067084Y-78863830D01*
X181959897Y-79074197D01*
X181886934Y-79298752D01*
X181850000Y-79531947D01*
X178068553Y-79531947D01*
X177980109Y-79410213D01*
X177829786Y-79259890D01*
X177657820Y-79134951D01*
X177657115Y-79134591D01*
X177649054Y-79130485D01*
X177598259Y-79082512D01*
X177581463Y-79014692D01*
X177603999Y-78948556D01*
X177649054Y-78909515D01*
X177657816Y-78905051D01*
X177824631Y-78783854D01*
X177829786Y-78780109D01*
X177829788Y-78780106D01*
X177829792Y-78780104D01*
X177980104Y-78629792D01*
X177980106Y-78629788D01*
X177980109Y-78629786D01*
X178105050Y-78457817D01*
X178125183Y-78418305D01*
X178125183Y-78418304D01*
X178141094Y-78387077D01*
X178201557Y-78268412D01*
X178267246Y-78066243D01*
X178300500Y-77856287D01*
X178300500Y-77643713D01*
X178267246Y-77433757D01*
X178201557Y-77231588D01*
X178105051Y-77042184D01*
X178105049Y-77042181D01*
X178105048Y-77042179D01*
X177980109Y-76870213D01*
X177829786Y-76719890D01*
X177657820Y-76594951D01*
X177657115Y-76594591D01*
X177649054Y-76590485D01*
X177598259Y-76542512D01*
X177581463Y-76474692D01*
X177603999Y-76408556D01*
X177649054Y-76369515D01*
X177657816Y-76365051D01*
X177726640Y-76315048D01*
X177829786Y-76240109D01*
X177829788Y-76240106D01*
X177829792Y-76240104D01*
X177980104Y-76089792D01*
X177980106Y-76089788D01*
X177980109Y-76089786D01*
X178105048Y-75917820D01*
X178105047Y-75917820D01*
X178105051Y-75917816D01*
X178201557Y-75728412D01*
X178267246Y-75526243D01*
X178300500Y-75316287D01*
X178300500Y-75103713D01*
X178267246Y-74893757D01*
X178201557Y-74691588D01*
X178105051Y-74502184D01*
X178105049Y-74502181D01*
X178105048Y-74502179D01*
X177980109Y-74330213D01*
X177829786Y-74179890D01*
X177657817Y-74054949D01*
X177648504Y-74050204D01*
X177597707Y-74002230D01*
X177580912Y-73934409D01*
X177603449Y-73868274D01*
X177648507Y-73829232D01*
X177657555Y-73824622D01*
X177711716Y-73785270D01*
X177711717Y-73785270D01*
X177079408Y-73152962D01*
X177142993Y-73135925D01*
X177257007Y-73070099D01*
X177350099Y-72977007D01*
X177415925Y-72862993D01*
X177432962Y-72799408D01*
X178065270Y-73431717D01*
X178065270Y-73431716D01*
X178104622Y-73377554D01*
X178201095Y-73188217D01*
X178266757Y-72986130D01*
X178266757Y-72986127D01*
X178300000Y-72776246D01*
X178300000Y-72563753D01*
X178266757Y-72353872D01*
X178266757Y-72353869D01*
X178201095Y-72151782D01*
X178104624Y-71962449D01*
X178065270Y-71908282D01*
X178065269Y-71908282D01*
X177432962Y-72540590D01*
X177415925Y-72477007D01*
X177350099Y-72362993D01*
X177257007Y-72269901D01*
X177142993Y-72204075D01*
X177079409Y-72187037D01*
X177711716Y-71554728D01*
X177657547Y-71515373D01*
X177657547Y-71515372D01*
X177648500Y-71510763D01*
X177597706Y-71462788D01*
X177580912Y-71394966D01*
X177603451Y-71328832D01*
X177648508Y-71289793D01*
X177657816Y-71285051D01*
X177737007Y-71227515D01*
X177829786Y-71160109D01*
X177829788Y-71160106D01*
X177829792Y-71160104D01*
X177980104Y-71009792D01*
X177980106Y-71009788D01*
X177980109Y-71009786D01*
X178105048Y-70837820D01*
X178105047Y-70837820D01*
X178105051Y-70837816D01*
X178201557Y-70648412D01*
X178267246Y-70446243D01*
X178300500Y-70236287D01*
X178300500Y-70023713D01*
X178267246Y-69813757D01*
X178201557Y-69611588D01*
X178105051Y-69422184D01*
X178105049Y-69422181D01*
X178105048Y-69422179D01*
X177980109Y-69250213D01*
X177829786Y-69099890D01*
X177657820Y-68974951D01*
X177657115Y-68974591D01*
X177649054Y-68970485D01*
X177598259Y-68922512D01*
X177581463Y-68854692D01*
X177603999Y-68788556D01*
X177649054Y-68749515D01*
X177657816Y-68745051D01*
X177726640Y-68695048D01*
X177829786Y-68620109D01*
X177829788Y-68620106D01*
X177829792Y-68620104D01*
X177980104Y-68469792D01*
X177980106Y-68469788D01*
X177980109Y-68469786D01*
X178105048Y-68297820D01*
X178105047Y-68297820D01*
X178105051Y-68297816D01*
X178201557Y-68108412D01*
X178267246Y-67906243D01*
X178300500Y-67696287D01*
X178300500Y-67483713D01*
X178267246Y-67273757D01*
X178201557Y-67071588D01*
X178105051Y-66882184D01*
X178105049Y-66882181D01*
X178105048Y-66882179D01*
X177980109Y-66710213D01*
X177829786Y-66559890D01*
X177657820Y-66434951D01*
X177657115Y-66434591D01*
X177649054Y-66430485D01*
X177598259Y-66382512D01*
X177581463Y-66314692D01*
X177603999Y-66248556D01*
X177649054Y-66209515D01*
X177657816Y-66205051D01*
X177726640Y-66155048D01*
X177829786Y-66080109D01*
X177829788Y-66080106D01*
X177829792Y-66080104D01*
X177980104Y-65929792D01*
X177980106Y-65929788D01*
X177980109Y-65929786D01*
X178105048Y-65757820D01*
X178105047Y-65757820D01*
X178105051Y-65757816D01*
X178201557Y-65568412D01*
X178267246Y-65366243D01*
X178300500Y-65156287D01*
X178300500Y-64943713D01*
X178267246Y-64733757D01*
X178201557Y-64531588D01*
X178105051Y-64342184D01*
X178105049Y-64342181D01*
X178105048Y-64342179D01*
X177980109Y-64170213D01*
X177829786Y-64019890D01*
X177657820Y-63894951D01*
X177657115Y-63894591D01*
X177649054Y-63890485D01*
X177598259Y-63842512D01*
X177581463Y-63774692D01*
X177603999Y-63708556D01*
X177649054Y-63669515D01*
X177657816Y-63665051D01*
X177709282Y-63627659D01*
X177829786Y-63540109D01*
X177829788Y-63540106D01*
X177829792Y-63540104D01*
X177980104Y-63389792D01*
X177980106Y-63389788D01*
X177980109Y-63389786D01*
X178105048Y-63217820D01*
X178105047Y-63217820D01*
X178105051Y-63217816D01*
X178201557Y-63028412D01*
X178267246Y-62826243D01*
X178300500Y-62616287D01*
X178300500Y-62403713D01*
X178267246Y-62193757D01*
X178201557Y-61991588D01*
X178105051Y-61802184D01*
X178105049Y-61802181D01*
X178105048Y-61802179D01*
X177980109Y-61630213D01*
X177829786Y-61479890D01*
X177657817Y-61354949D01*
X177648504Y-61350204D01*
X177597707Y-61302230D01*
X177580912Y-61234409D01*
X177603449Y-61168274D01*
X177648507Y-61129232D01*
X177657555Y-61124622D01*
X177711716Y-61085270D01*
X177711717Y-61085270D01*
X177079408Y-60452962D01*
X177142993Y-60435925D01*
X177257007Y-60370099D01*
X177350099Y-60277007D01*
X177415925Y-60162993D01*
X177432962Y-60099408D01*
X178065270Y-60731717D01*
X178065270Y-60731716D01*
X178104622Y-60677554D01*
X178201095Y-60488217D01*
X178266757Y-60286130D01*
X178266757Y-60286127D01*
X178300000Y-60076246D01*
X178300000Y-59863753D01*
X178266757Y-59653872D01*
X178266757Y-59653869D01*
X178201095Y-59451782D01*
X178104624Y-59262449D01*
X178065270Y-59208282D01*
X178065269Y-59208282D01*
X177432962Y-59840590D01*
X177415925Y-59777007D01*
X177350099Y-59662993D01*
X177257007Y-59569901D01*
X177142993Y-59504075D01*
X177079409Y-59487037D01*
X177711716Y-58854728D01*
X177657547Y-58815373D01*
X177657547Y-58815372D01*
X177648500Y-58810763D01*
X177597706Y-58762788D01*
X177580912Y-58694966D01*
X177603451Y-58628832D01*
X177648508Y-58589793D01*
X177657816Y-58585051D01*
X177737007Y-58527515D01*
X177829786Y-58460109D01*
X177829788Y-58460106D01*
X177829792Y-58460104D01*
X177980104Y-58309792D01*
X177980106Y-58309788D01*
X177980109Y-58309786D01*
X178103368Y-58140132D01*
X178105051Y-58137816D01*
X178201557Y-57948412D01*
X178267246Y-57746243D01*
X178300500Y-57536287D01*
X178300500Y-57323713D01*
X178267246Y-57113757D01*
X178201557Y-56911588D01*
X178105051Y-56722184D01*
X178105049Y-56722181D01*
X178105048Y-56722179D01*
X177980109Y-56550213D01*
X177866569Y-56436673D01*
X177833084Y-56375350D01*
X177838068Y-56305658D01*
X177879940Y-56249725D01*
X177910915Y-56232810D01*
X178042331Y-56183796D01*
X178157546Y-56097546D01*
X178243796Y-55982331D01*
X178294091Y-55847483D01*
X178300500Y-55787873D01*
X178300499Y-54014780D01*
X178320184Y-53947742D01*
X178372987Y-53901987D01*
X178442146Y-53892043D01*
X178505702Y-53921068D01*
G37*
%TD.AperFunction*%
%TD*%
M02*
