%TF.GenerationSoftware,KiCad,Pcbnew,9.0.7-9.0.7~ubuntu22.04.1*%
%TF.CreationDate,2026-04-10T14:26:46+05:30*%
%TF.ProjectId,monodeck,6d6f6e6f-6465-4636-9b2e-6b696361645f,rev?*%
%TF.SameCoordinates,Original*%
%TF.FileFunction,Soldermask,Bot*%
%TF.FilePolarity,Negative*%
%FSLAX46Y46*%
G04 Gerber Fmt 4.6, Leading zero omitted, Abs format (unit mm)*
G04 Created by KiCad (PCBNEW 9.0.7-9.0.7~ubuntu22.04.1) date 2026-04-10 14:26:46*
%MOMM*%
%LPD*%
G01*
G04 APERTURE LIST*
G04 Aperture macros list*
%AMRoundRect*
0 Rectangle with rounded corners*
0 $1 Rounding radius*
0 $2 $3 $4 $5 $6 $7 $8 $9 X,Y pos of 4 corners*
0 Add a 4 corners polygon primitive as box body*
4,1,4,$2,$3,$4,$5,$6,$7,$8,$9,$2,$3,0*
0 Add four circle primitives for the rounded corners*
1,1,$1+$1,$2,$3*
1,1,$1+$1,$4,$5*
1,1,$1+$1,$6,$7*
1,1,$1+$1,$8,$9*
0 Add four rect primitives between the rounded corners*
20,1,$1+$1,$2,$3,$4,$5,0*
20,1,$1+$1,$4,$5,$6,$7,0*
20,1,$1+$1,$6,$7,$8,$9,0*
20,1,$1+$1,$8,$9,$2,$3,0*%
G04 Aperture macros list end*
%ADD10R,1.700000X1.700000*%
%ADD11C,1.700000*%
%ADD12C,2.000000*%
%ADD13RoundRect,0.102000X-1.387500X1.387500X-1.387500X-1.387500X1.387500X-1.387500X1.387500X1.387500X0*%
%ADD14C,2.979000*%
%ADD15RoundRect,0.250000X-0.350000X-0.625000X0.350000X-0.625000X0.350000X0.625000X-0.350000X0.625000X0*%
%ADD16O,1.200000X1.750000*%
G04 APERTURE END LIST*
D10*
%TO.C,OLED1*%
X163450000Y-55000000D03*
D11*
X165990000Y-55000000D03*
X168530000Y-55000000D03*
X171070000Y-55000000D03*
%TD*%
D12*
%TO.C,U1*%
X197350000Y-102650000D03*
X183350000Y-102650000D03*
X197350000Y-79650000D03*
X183350000Y-79650000D03*
X194810000Y-79650000D03*
X185890000Y-79650000D03*
%TD*%
D13*
%TO.C,PWR1*%
X184489500Y-65509250D03*
D14*
X184489500Y-58509250D03*
%TD*%
D15*
%TO.C,BAT1*%
X140500000Y-61550000D03*
D16*
X142500000Y-61550000D03*
%TD*%
D10*
%TO.C,J2*%
X176950000Y-54890000D03*
D11*
X176950000Y-57430000D03*
X176950000Y-59970000D03*
X176950000Y-62510000D03*
X176950000Y-65050000D03*
X176950000Y-67590000D03*
X176950000Y-70130000D03*
X176950000Y-72670000D03*
X176950000Y-75210000D03*
X176950000Y-77750000D03*
X176950000Y-80290000D03*
X176950000Y-82830000D03*
X176950000Y-85370000D03*
X176950000Y-87910000D03*
X176950000Y-90450000D03*
X176950000Y-92990000D03*
X176950000Y-95530000D03*
X176950000Y-98070000D03*
X176950000Y-100610000D03*
X176950000Y-103150000D03*
%TD*%
D10*
%TO.C,J1*%
X157500000Y-103100000D03*
D11*
X157500000Y-100560000D03*
X157500000Y-98020000D03*
X157500000Y-95480000D03*
X157500000Y-92940000D03*
X157500000Y-90400000D03*
X157500000Y-87860000D03*
X157500000Y-85320000D03*
X157500000Y-82780000D03*
X157500000Y-80240000D03*
X157500000Y-77700000D03*
X157500000Y-75160000D03*
X157500000Y-72620000D03*
X157500000Y-70080000D03*
X157500000Y-67540000D03*
X157500000Y-65000000D03*
X157500000Y-62460000D03*
X157500000Y-59920000D03*
X157500000Y-57380000D03*
X157500000Y-54840000D03*
%TD*%
M02*
