%TF.GenerationSoftware,KiCad,Pcbnew,9.0.7-9.0.7~ubuntu22.04.1*%
%TF.CreationDate,2026-04-10T14:26:46+05:30*%
%TF.ProjectId,monodeck,6d6f6e6f-6465-4636-9b2e-6b696361645f,rev?*%
%TF.SameCoordinates,Original*%
%TF.FileFunction,Legend,Top*%
%TF.FilePolarity,Positive*%
%FSLAX46Y46*%
G04 Gerber Fmt 4.6, Leading zero omitted, Abs format (unit mm)*
G04 Created by KiCad (PCBNEW 9.0.7-9.0.7~ubuntu22.04.1) date 2026-04-10 14:26:46*
%MOMM*%
%LPD*%
G01*
G04 APERTURE LIST*
G04 Aperture macros list*
%AMRoundRect*
0 Rectangle with rounded corners*
0 $1 Rounding radius*
0 $2 $3 $4 $5 $6 $7 $8 $9 X,Y pos of 4 corners*
0 Add a 4 corners polygon primitive as box body*
4,1,4,$2,$3,$4,$5,$6,$7,$8,$9,$2,$3,0*
0 Add four circle primitives for the rounded corners*
1,1,$1+$1,$2,$3*
1,1,$1+$1,$4,$5*
1,1,$1+$1,$6,$7*
1,1,$1+$1,$8,$9*
0 Add four rect primitives between the rounded corners*
20,1,$1+$1,$2,$3,$4,$5,0*
20,1,$1+$1,$4,$5,$6,$7,0*
20,1,$1+$1,$6,$7,$8,$9,0*
20,1,$1+$1,$8,$9,$2,$3,0*%
G04 Aperture macros list end*
%ADD10C,0.150000*%
%ADD11C,0.200000*%
%ADD12C,0.120000*%
%ADD13C,0.000000*%
%ADD14RoundRect,0.102000X-0.700000X-0.700000X0.700000X-0.700000X0.700000X0.700000X-0.700000X0.700000X0*%
%ADD15R,1.700000X1.700000*%
%ADD16C,1.700000*%
%ADD17C,2.000000*%
%ADD18RoundRect,0.102000X-1.387500X1.387500X-1.387500X-1.387500X1.387500X-1.387500X1.387500X1.387500X0*%
%ADD19C,2.979000*%
%ADD20RoundRect,0.250000X-0.350000X-0.625000X0.350000X-0.625000X0.350000X0.625000X-0.350000X0.625000X0*%
%ADD21O,1.200000X1.750000*%
G04 APERTURE END LIST*
D10*
X150741541Y-77203152D02*
X150979636Y-77869819D01*
X150979636Y-77869819D02*
X151217731Y-77203152D01*
X151551065Y-76965057D02*
X151598684Y-76917438D01*
X151598684Y-76917438D02*
X151693922Y-76869819D01*
X151693922Y-76869819D02*
X151932017Y-76869819D01*
X151932017Y-76869819D02*
X152027255Y-76917438D01*
X152027255Y-76917438D02*
X152074874Y-76965057D01*
X152074874Y-76965057D02*
X152122493Y-77060295D01*
X152122493Y-77060295D02*
X152122493Y-77155533D01*
X152122493Y-77155533D02*
X152074874Y-77298390D01*
X152074874Y-77298390D02*
X151503446Y-77869819D01*
X151503446Y-77869819D02*
X152122493Y-77869819D01*
X152551065Y-77774580D02*
X152598684Y-77822200D01*
X152598684Y-77822200D02*
X152551065Y-77869819D01*
X152551065Y-77869819D02*
X152503446Y-77822200D01*
X152503446Y-77822200D02*
X152551065Y-77774580D01*
X152551065Y-77774580D02*
X152551065Y-77869819D01*
X152932017Y-76869819D02*
X153551064Y-76869819D01*
X153551064Y-76869819D02*
X153217731Y-77250771D01*
X153217731Y-77250771D02*
X153360588Y-77250771D01*
X153360588Y-77250771D02*
X153455826Y-77298390D01*
X153455826Y-77298390D02*
X153503445Y-77346009D01*
X153503445Y-77346009D02*
X153551064Y-77441247D01*
X153551064Y-77441247D02*
X153551064Y-77679342D01*
X153551064Y-77679342D02*
X153503445Y-77774580D01*
X153503445Y-77774580D02*
X153455826Y-77822200D01*
X153455826Y-77822200D02*
X153360588Y-77869819D01*
X153360588Y-77869819D02*
X153074874Y-77869819D01*
X153074874Y-77869819D02*
X152979636Y-77822200D01*
X152979636Y-77822200D02*
X152932017Y-77774580D01*
X153979636Y-77774580D02*
X154027255Y-77822200D01*
X154027255Y-77822200D02*
X153979636Y-77869819D01*
X153979636Y-77869819D02*
X153932017Y-77822200D01*
X153932017Y-77822200D02*
X153979636Y-77774580D01*
X153979636Y-77774580D02*
X153979636Y-77869819D01*
X154646302Y-76869819D02*
X154741540Y-76869819D01*
X154741540Y-76869819D02*
X154836778Y-76917438D01*
X154836778Y-76917438D02*
X154884397Y-76965057D01*
X154884397Y-76965057D02*
X154932016Y-77060295D01*
X154932016Y-77060295D02*
X154979635Y-77250771D01*
X154979635Y-77250771D02*
X154979635Y-77488866D01*
X154979635Y-77488866D02*
X154932016Y-77679342D01*
X154932016Y-77679342D02*
X154884397Y-77774580D01*
X154884397Y-77774580D02*
X154836778Y-77822200D01*
X154836778Y-77822200D02*
X154741540Y-77869819D01*
X154741540Y-77869819D02*
X154646302Y-77869819D01*
X154646302Y-77869819D02*
X154551064Y-77822200D01*
X154551064Y-77822200D02*
X154503445Y-77774580D01*
X154503445Y-77774580D02*
X154455826Y-77679342D01*
X154455826Y-77679342D02*
X154408207Y-77488866D01*
X154408207Y-77488866D02*
X154408207Y-77250771D01*
X154408207Y-77250771D02*
X154455826Y-77060295D01*
X154455826Y-77060295D02*
X154503445Y-76965057D01*
X154503445Y-76965057D02*
X154551064Y-76917438D01*
X154551064Y-76917438D02*
X154646302Y-76869819D01*
X192163095Y-85772200D02*
X192305952Y-85819819D01*
X192305952Y-85819819D02*
X192544047Y-85819819D01*
X192544047Y-85819819D02*
X192639285Y-85772200D01*
X192639285Y-85772200D02*
X192686904Y-85724580D01*
X192686904Y-85724580D02*
X192734523Y-85629342D01*
X192734523Y-85629342D02*
X192734523Y-85534104D01*
X192734523Y-85534104D02*
X192686904Y-85438866D01*
X192686904Y-85438866D02*
X192639285Y-85391247D01*
X192639285Y-85391247D02*
X192544047Y-85343628D01*
X192544047Y-85343628D02*
X192353571Y-85296009D01*
X192353571Y-85296009D02*
X192258333Y-85248390D01*
X192258333Y-85248390D02*
X192210714Y-85200771D01*
X192210714Y-85200771D02*
X192163095Y-85105533D01*
X192163095Y-85105533D02*
X192163095Y-85010295D01*
X192163095Y-85010295D02*
X192210714Y-84915057D01*
X192210714Y-84915057D02*
X192258333Y-84867438D01*
X192258333Y-84867438D02*
X192353571Y-84819819D01*
X192353571Y-84819819D02*
X192591666Y-84819819D01*
X192591666Y-84819819D02*
X192734523Y-84867438D01*
X193639285Y-84819819D02*
X193163095Y-84819819D01*
X193163095Y-84819819D02*
X193115476Y-85296009D01*
X193115476Y-85296009D02*
X193163095Y-85248390D01*
X193163095Y-85248390D02*
X193258333Y-85200771D01*
X193258333Y-85200771D02*
X193496428Y-85200771D01*
X193496428Y-85200771D02*
X193591666Y-85248390D01*
X193591666Y-85248390D02*
X193639285Y-85296009D01*
X193639285Y-85296009D02*
X193686904Y-85391247D01*
X193686904Y-85391247D02*
X193686904Y-85629342D01*
X193686904Y-85629342D02*
X193639285Y-85724580D01*
X193639285Y-85724580D02*
X193591666Y-85772200D01*
X193591666Y-85772200D02*
X193496428Y-85819819D01*
X193496428Y-85819819D02*
X193258333Y-85819819D01*
X193258333Y-85819819D02*
X193163095Y-85772200D01*
X193163095Y-85772200D02*
X193115476Y-85724580D01*
X160134819Y-56928571D02*
X160134819Y-56738095D01*
X160134819Y-56738095D02*
X160182438Y-56642857D01*
X160182438Y-56642857D02*
X160277676Y-56547619D01*
X160277676Y-56547619D02*
X160468152Y-56500000D01*
X160468152Y-56500000D02*
X160801485Y-56500000D01*
X160801485Y-56500000D02*
X160991961Y-56547619D01*
X160991961Y-56547619D02*
X161087200Y-56642857D01*
X161087200Y-56642857D02*
X161134819Y-56738095D01*
X161134819Y-56738095D02*
X161134819Y-56928571D01*
X161134819Y-56928571D02*
X161087200Y-57023809D01*
X161087200Y-57023809D02*
X160991961Y-57119047D01*
X160991961Y-57119047D02*
X160801485Y-57166666D01*
X160801485Y-57166666D02*
X160468152Y-57166666D01*
X160468152Y-57166666D02*
X160277676Y-57119047D01*
X160277676Y-57119047D02*
X160182438Y-57023809D01*
X160182438Y-57023809D02*
X160134819Y-56928571D01*
X161134819Y-55595238D02*
X161134819Y-56071428D01*
X161134819Y-56071428D02*
X160134819Y-56071428D01*
X160611009Y-55261904D02*
X160611009Y-54928571D01*
X161134819Y-54785714D02*
X161134819Y-55261904D01*
X161134819Y-55261904D02*
X160134819Y-55261904D01*
X160134819Y-55261904D02*
X160134819Y-54785714D01*
X161134819Y-54357142D02*
X160134819Y-54357142D01*
X160134819Y-54357142D02*
X160134819Y-54119047D01*
X160134819Y-54119047D02*
X160182438Y-53976190D01*
X160182438Y-53976190D02*
X160277676Y-53880952D01*
X160277676Y-53880952D02*
X160372914Y-53833333D01*
X160372914Y-53833333D02*
X160563390Y-53785714D01*
X160563390Y-53785714D02*
X160706247Y-53785714D01*
X160706247Y-53785714D02*
X160896723Y-53833333D01*
X160896723Y-53833333D02*
X160991961Y-53880952D01*
X160991961Y-53880952D02*
X161087200Y-53976190D01*
X161087200Y-53976190D02*
X161134819Y-54119047D01*
X161134819Y-54119047D02*
X161134819Y-54357142D01*
X161134819Y-52833333D02*
X161134819Y-53404761D01*
X161134819Y-53119047D02*
X160134819Y-53119047D01*
X160134819Y-53119047D02*
X160277676Y-53214285D01*
X160277676Y-53214285D02*
X160372914Y-53309523D01*
X160372914Y-53309523D02*
X160420533Y-53404761D01*
X140163095Y-82022200D02*
X140305952Y-82069819D01*
X140305952Y-82069819D02*
X140544047Y-82069819D01*
X140544047Y-82069819D02*
X140639285Y-82022200D01*
X140639285Y-82022200D02*
X140686904Y-81974580D01*
X140686904Y-81974580D02*
X140734523Y-81879342D01*
X140734523Y-81879342D02*
X140734523Y-81784104D01*
X140734523Y-81784104D02*
X140686904Y-81688866D01*
X140686904Y-81688866D02*
X140639285Y-81641247D01*
X140639285Y-81641247D02*
X140544047Y-81593628D01*
X140544047Y-81593628D02*
X140353571Y-81546009D01*
X140353571Y-81546009D02*
X140258333Y-81498390D01*
X140258333Y-81498390D02*
X140210714Y-81450771D01*
X140210714Y-81450771D02*
X140163095Y-81355533D01*
X140163095Y-81355533D02*
X140163095Y-81260295D01*
X140163095Y-81260295D02*
X140210714Y-81165057D01*
X140210714Y-81165057D02*
X140258333Y-81117438D01*
X140258333Y-81117438D02*
X140353571Y-81069819D01*
X140353571Y-81069819D02*
X140591666Y-81069819D01*
X140591666Y-81069819D02*
X140734523Y-81117438D01*
X141686904Y-82069819D02*
X141115476Y-82069819D01*
X141401190Y-82069819D02*
X141401190Y-81069819D01*
X141401190Y-81069819D02*
X141305952Y-81212676D01*
X141305952Y-81212676D02*
X141210714Y-81307914D01*
X141210714Y-81307914D02*
X141115476Y-81355533D01*
X166163095Y-96022200D02*
X166305952Y-96069819D01*
X166305952Y-96069819D02*
X166544047Y-96069819D01*
X166544047Y-96069819D02*
X166639285Y-96022200D01*
X166639285Y-96022200D02*
X166686904Y-95974580D01*
X166686904Y-95974580D02*
X166734523Y-95879342D01*
X166734523Y-95879342D02*
X166734523Y-95784104D01*
X166734523Y-95784104D02*
X166686904Y-95688866D01*
X166686904Y-95688866D02*
X166639285Y-95641247D01*
X166639285Y-95641247D02*
X166544047Y-95593628D01*
X166544047Y-95593628D02*
X166353571Y-95546009D01*
X166353571Y-95546009D02*
X166258333Y-95498390D01*
X166258333Y-95498390D02*
X166210714Y-95450771D01*
X166210714Y-95450771D02*
X166163095Y-95355533D01*
X166163095Y-95355533D02*
X166163095Y-95260295D01*
X166163095Y-95260295D02*
X166210714Y-95165057D01*
X166210714Y-95165057D02*
X166258333Y-95117438D01*
X166258333Y-95117438D02*
X166353571Y-95069819D01*
X166353571Y-95069819D02*
X166591666Y-95069819D01*
X166591666Y-95069819D02*
X166734523Y-95117438D01*
X167305952Y-95498390D02*
X167210714Y-95450771D01*
X167210714Y-95450771D02*
X167163095Y-95403152D01*
X167163095Y-95403152D02*
X167115476Y-95307914D01*
X167115476Y-95307914D02*
X167115476Y-95260295D01*
X167115476Y-95260295D02*
X167163095Y-95165057D01*
X167163095Y-95165057D02*
X167210714Y-95117438D01*
X167210714Y-95117438D02*
X167305952Y-95069819D01*
X167305952Y-95069819D02*
X167496428Y-95069819D01*
X167496428Y-95069819D02*
X167591666Y-95117438D01*
X167591666Y-95117438D02*
X167639285Y-95165057D01*
X167639285Y-95165057D02*
X167686904Y-95260295D01*
X167686904Y-95260295D02*
X167686904Y-95307914D01*
X167686904Y-95307914D02*
X167639285Y-95403152D01*
X167639285Y-95403152D02*
X167591666Y-95450771D01*
X167591666Y-95450771D02*
X167496428Y-95498390D01*
X167496428Y-95498390D02*
X167305952Y-95498390D01*
X167305952Y-95498390D02*
X167210714Y-95546009D01*
X167210714Y-95546009D02*
X167163095Y-95593628D01*
X167163095Y-95593628D02*
X167115476Y-95688866D01*
X167115476Y-95688866D02*
X167115476Y-95879342D01*
X167115476Y-95879342D02*
X167163095Y-95974580D01*
X167163095Y-95974580D02*
X167210714Y-96022200D01*
X167210714Y-96022200D02*
X167305952Y-96069819D01*
X167305952Y-96069819D02*
X167496428Y-96069819D01*
X167496428Y-96069819D02*
X167591666Y-96022200D01*
X167591666Y-96022200D02*
X167639285Y-95974580D01*
X167639285Y-95974580D02*
X167686904Y-95879342D01*
X167686904Y-95879342D02*
X167686904Y-95688866D01*
X167686904Y-95688866D02*
X167639285Y-95593628D01*
X167639285Y-95593628D02*
X167591666Y-95546009D01*
X167591666Y-95546009D02*
X167496428Y-95498390D01*
X166163095Y-83522200D02*
X166305952Y-83569819D01*
X166305952Y-83569819D02*
X166544047Y-83569819D01*
X166544047Y-83569819D02*
X166639285Y-83522200D01*
X166639285Y-83522200D02*
X166686904Y-83474580D01*
X166686904Y-83474580D02*
X166734523Y-83379342D01*
X166734523Y-83379342D02*
X166734523Y-83284104D01*
X166734523Y-83284104D02*
X166686904Y-83188866D01*
X166686904Y-83188866D02*
X166639285Y-83141247D01*
X166639285Y-83141247D02*
X166544047Y-83093628D01*
X166544047Y-83093628D02*
X166353571Y-83046009D01*
X166353571Y-83046009D02*
X166258333Y-82998390D01*
X166258333Y-82998390D02*
X166210714Y-82950771D01*
X166210714Y-82950771D02*
X166163095Y-82855533D01*
X166163095Y-82855533D02*
X166163095Y-82760295D01*
X166163095Y-82760295D02*
X166210714Y-82665057D01*
X166210714Y-82665057D02*
X166258333Y-82617438D01*
X166258333Y-82617438D02*
X166353571Y-82569819D01*
X166353571Y-82569819D02*
X166591666Y-82569819D01*
X166591666Y-82569819D02*
X166734523Y-82617438D01*
X167067857Y-82569819D02*
X167734523Y-82569819D01*
X167734523Y-82569819D02*
X167305952Y-83569819D01*
X147413095Y-89522200D02*
X147555952Y-89569819D01*
X147555952Y-89569819D02*
X147794047Y-89569819D01*
X147794047Y-89569819D02*
X147889285Y-89522200D01*
X147889285Y-89522200D02*
X147936904Y-89474580D01*
X147936904Y-89474580D02*
X147984523Y-89379342D01*
X147984523Y-89379342D02*
X147984523Y-89284104D01*
X147984523Y-89284104D02*
X147936904Y-89188866D01*
X147936904Y-89188866D02*
X147889285Y-89141247D01*
X147889285Y-89141247D02*
X147794047Y-89093628D01*
X147794047Y-89093628D02*
X147603571Y-89046009D01*
X147603571Y-89046009D02*
X147508333Y-88998390D01*
X147508333Y-88998390D02*
X147460714Y-88950771D01*
X147460714Y-88950771D02*
X147413095Y-88855533D01*
X147413095Y-88855533D02*
X147413095Y-88760295D01*
X147413095Y-88760295D02*
X147460714Y-88665057D01*
X147460714Y-88665057D02*
X147508333Y-88617438D01*
X147508333Y-88617438D02*
X147603571Y-88569819D01*
X147603571Y-88569819D02*
X147841666Y-88569819D01*
X147841666Y-88569819D02*
X147984523Y-88617438D01*
X148841666Y-88903152D02*
X148841666Y-89569819D01*
X148603571Y-88522200D02*
X148365476Y-89236485D01*
X148365476Y-89236485D02*
X148984523Y-89236485D01*
X132913095Y-89522200D02*
X133055952Y-89569819D01*
X133055952Y-89569819D02*
X133294047Y-89569819D01*
X133294047Y-89569819D02*
X133389285Y-89522200D01*
X133389285Y-89522200D02*
X133436904Y-89474580D01*
X133436904Y-89474580D02*
X133484523Y-89379342D01*
X133484523Y-89379342D02*
X133484523Y-89284104D01*
X133484523Y-89284104D02*
X133436904Y-89188866D01*
X133436904Y-89188866D02*
X133389285Y-89141247D01*
X133389285Y-89141247D02*
X133294047Y-89093628D01*
X133294047Y-89093628D02*
X133103571Y-89046009D01*
X133103571Y-89046009D02*
X133008333Y-88998390D01*
X133008333Y-88998390D02*
X132960714Y-88950771D01*
X132960714Y-88950771D02*
X132913095Y-88855533D01*
X132913095Y-88855533D02*
X132913095Y-88760295D01*
X132913095Y-88760295D02*
X132960714Y-88665057D01*
X132960714Y-88665057D02*
X133008333Y-88617438D01*
X133008333Y-88617438D02*
X133103571Y-88569819D01*
X133103571Y-88569819D02*
X133341666Y-88569819D01*
X133341666Y-88569819D02*
X133484523Y-88617438D01*
X133817857Y-88569819D02*
X134436904Y-88569819D01*
X134436904Y-88569819D02*
X134103571Y-88950771D01*
X134103571Y-88950771D02*
X134246428Y-88950771D01*
X134246428Y-88950771D02*
X134341666Y-88998390D01*
X134341666Y-88998390D02*
X134389285Y-89046009D01*
X134389285Y-89046009D02*
X134436904Y-89141247D01*
X134436904Y-89141247D02*
X134436904Y-89379342D01*
X134436904Y-89379342D02*
X134389285Y-89474580D01*
X134389285Y-89474580D02*
X134341666Y-89522200D01*
X134341666Y-89522200D02*
X134246428Y-89569819D01*
X134246428Y-89569819D02*
X133960714Y-89569819D01*
X133960714Y-89569819D02*
X133865476Y-89522200D01*
X133865476Y-89522200D02*
X133817857Y-89474580D01*
X140163095Y-97022200D02*
X140305952Y-97069819D01*
X140305952Y-97069819D02*
X140544047Y-97069819D01*
X140544047Y-97069819D02*
X140639285Y-97022200D01*
X140639285Y-97022200D02*
X140686904Y-96974580D01*
X140686904Y-96974580D02*
X140734523Y-96879342D01*
X140734523Y-96879342D02*
X140734523Y-96784104D01*
X140734523Y-96784104D02*
X140686904Y-96688866D01*
X140686904Y-96688866D02*
X140639285Y-96641247D01*
X140639285Y-96641247D02*
X140544047Y-96593628D01*
X140544047Y-96593628D02*
X140353571Y-96546009D01*
X140353571Y-96546009D02*
X140258333Y-96498390D01*
X140258333Y-96498390D02*
X140210714Y-96450771D01*
X140210714Y-96450771D02*
X140163095Y-96355533D01*
X140163095Y-96355533D02*
X140163095Y-96260295D01*
X140163095Y-96260295D02*
X140210714Y-96165057D01*
X140210714Y-96165057D02*
X140258333Y-96117438D01*
X140258333Y-96117438D02*
X140353571Y-96069819D01*
X140353571Y-96069819D02*
X140591666Y-96069819D01*
X140591666Y-96069819D02*
X140734523Y-96117438D01*
X141115476Y-96165057D02*
X141163095Y-96117438D01*
X141163095Y-96117438D02*
X141258333Y-96069819D01*
X141258333Y-96069819D02*
X141496428Y-96069819D01*
X141496428Y-96069819D02*
X141591666Y-96117438D01*
X141591666Y-96117438D02*
X141639285Y-96165057D01*
X141639285Y-96165057D02*
X141686904Y-96260295D01*
X141686904Y-96260295D02*
X141686904Y-96355533D01*
X141686904Y-96355533D02*
X141639285Y-96498390D01*
X141639285Y-96498390D02*
X141067857Y-97069819D01*
X141067857Y-97069819D02*
X141686904Y-97069819D01*
X184913095Y-93272200D02*
X185055952Y-93319819D01*
X185055952Y-93319819D02*
X185294047Y-93319819D01*
X185294047Y-93319819D02*
X185389285Y-93272200D01*
X185389285Y-93272200D02*
X185436904Y-93224580D01*
X185436904Y-93224580D02*
X185484523Y-93129342D01*
X185484523Y-93129342D02*
X185484523Y-93034104D01*
X185484523Y-93034104D02*
X185436904Y-92938866D01*
X185436904Y-92938866D02*
X185389285Y-92891247D01*
X185389285Y-92891247D02*
X185294047Y-92843628D01*
X185294047Y-92843628D02*
X185103571Y-92796009D01*
X185103571Y-92796009D02*
X185008333Y-92748390D01*
X185008333Y-92748390D02*
X184960714Y-92700771D01*
X184960714Y-92700771D02*
X184913095Y-92605533D01*
X184913095Y-92605533D02*
X184913095Y-92510295D01*
X184913095Y-92510295D02*
X184960714Y-92415057D01*
X184960714Y-92415057D02*
X185008333Y-92367438D01*
X185008333Y-92367438D02*
X185103571Y-92319819D01*
X185103571Y-92319819D02*
X185341666Y-92319819D01*
X185341666Y-92319819D02*
X185484523Y-92367438D01*
X186341666Y-92319819D02*
X186151190Y-92319819D01*
X186151190Y-92319819D02*
X186055952Y-92367438D01*
X186055952Y-92367438D02*
X186008333Y-92415057D01*
X186008333Y-92415057D02*
X185913095Y-92557914D01*
X185913095Y-92557914D02*
X185865476Y-92748390D01*
X185865476Y-92748390D02*
X185865476Y-93129342D01*
X185865476Y-93129342D02*
X185913095Y-93224580D01*
X185913095Y-93224580D02*
X185960714Y-93272200D01*
X185960714Y-93272200D02*
X186055952Y-93319819D01*
X186055952Y-93319819D02*
X186246428Y-93319819D01*
X186246428Y-93319819D02*
X186341666Y-93272200D01*
X186341666Y-93272200D02*
X186389285Y-93224580D01*
X186389285Y-93224580D02*
X186436904Y-93129342D01*
X186436904Y-93129342D02*
X186436904Y-92891247D01*
X186436904Y-92891247D02*
X186389285Y-92796009D01*
X186389285Y-92796009D02*
X186341666Y-92748390D01*
X186341666Y-92748390D02*
X186246428Y-92700771D01*
X186246428Y-92700771D02*
X186055952Y-92700771D01*
X186055952Y-92700771D02*
X185960714Y-92748390D01*
X185960714Y-92748390D02*
X185913095Y-92796009D01*
X185913095Y-92796009D02*
X185865476Y-92891247D01*
D11*
%TO.C,S5*%
X191000000Y-86500000D02*
X195500000Y-86500000D01*
X191000000Y-91000000D02*
X191000000Y-86500000D01*
X195500000Y-86500000D02*
X195500000Y-91000000D01*
X195500000Y-91000000D02*
X191000000Y-91000000D01*
X188850000Y-87250000D02*
G75*
G02*
X188650000Y-87250000I-100000J0D01*
G01*
X188650000Y-87250000D02*
G75*
G02*
X188850000Y-87250000I100000J0D01*
G01*
D12*
%TO.C,OLED1*%
X162120000Y-53670000D02*
X163450000Y-53670000D01*
X162120000Y-55000000D02*
X162120000Y-53670000D01*
X164720000Y-53670000D02*
X172400000Y-53670000D01*
X164720000Y-56330000D02*
X164720000Y-53670000D01*
X164720000Y-56330000D02*
X172400000Y-56330000D01*
X172400000Y-56330000D02*
X172400000Y-53670000D01*
D11*
%TO.C,S1*%
X139000000Y-82750000D02*
X143500000Y-82750000D01*
X139000000Y-87250000D02*
X139000000Y-82750000D01*
X143500000Y-82750000D02*
X143500000Y-87250000D01*
X143500000Y-87250000D02*
X139000000Y-87250000D01*
X136850000Y-83500000D02*
G75*
G02*
X136650000Y-83500000I-100000J0D01*
G01*
X136650000Y-83500000D02*
G75*
G02*
X136850000Y-83500000I100000J0D01*
G01*
%TO.C,S8*%
X165000000Y-96750000D02*
X169500000Y-96750000D01*
X165000000Y-101250000D02*
X165000000Y-96750000D01*
X169500000Y-96750000D02*
X169500000Y-101250000D01*
X169500000Y-101250000D02*
X165000000Y-101250000D01*
X162850000Y-97500000D02*
G75*
G02*
X162650000Y-97500000I-100000J0D01*
G01*
X162650000Y-97500000D02*
G75*
G02*
X162850000Y-97500000I100000J0D01*
G01*
%TO.C,S7*%
X165000000Y-84250000D02*
X169500000Y-84250000D01*
X165000000Y-88750000D02*
X165000000Y-84250000D01*
X169500000Y-84250000D02*
X169500000Y-88750000D01*
X169500000Y-88750000D02*
X165000000Y-88750000D01*
X162850000Y-85000000D02*
G75*
G02*
X162650000Y-85000000I-100000J0D01*
G01*
X162650000Y-85000000D02*
G75*
G02*
X162850000Y-85000000I100000J0D01*
G01*
%TO.C,S4*%
X146250000Y-90250000D02*
X150750000Y-90250000D01*
X146250000Y-94750000D02*
X146250000Y-90250000D01*
X150750000Y-90250000D02*
X150750000Y-94750000D01*
X150750000Y-94750000D02*
X146250000Y-94750000D01*
X144100000Y-91000000D02*
G75*
G02*
X143900000Y-91000000I-100000J0D01*
G01*
X143900000Y-91000000D02*
G75*
G02*
X144100000Y-91000000I100000J0D01*
G01*
%TO.C,S3*%
X131750000Y-90250000D02*
X136250000Y-90250000D01*
X131750000Y-94750000D02*
X131750000Y-90250000D01*
X136250000Y-90250000D02*
X136250000Y-94750000D01*
X136250000Y-94750000D02*
X131750000Y-94750000D01*
X129600000Y-91000000D02*
G75*
G02*
X129400000Y-91000000I-100000J0D01*
G01*
X129400000Y-91000000D02*
G75*
G02*
X129600000Y-91000000I100000J0D01*
G01*
%TO.C,S2*%
X139000000Y-97750000D02*
X143500000Y-97750000D01*
X139000000Y-102250000D02*
X139000000Y-97750000D01*
X143500000Y-97750000D02*
X143500000Y-102250000D01*
X143500000Y-102250000D02*
X139000000Y-102250000D01*
X136850000Y-98500000D02*
G75*
G02*
X136650000Y-98500000I-100000J0D01*
G01*
X136650000Y-98500000D02*
G75*
G02*
X136850000Y-98500000I100000J0D01*
G01*
%TO.C,S6*%
X183750000Y-94000000D02*
X188250000Y-94000000D01*
X183750000Y-98500000D02*
X183750000Y-94000000D01*
X188250000Y-94000000D02*
X188250000Y-98500000D01*
X188250000Y-98500000D02*
X183750000Y-98500000D01*
X181600000Y-94750000D02*
G75*
G02*
X181400000Y-94750000I-100000J0D01*
G01*
X181400000Y-94750000D02*
G75*
G02*
X181600000Y-94750000I100000J0D01*
G01*
D13*
%TO.C,G\u002A\u002A\u002A*%
G36*
X151162117Y-68178130D02*
G01*
X151804416Y-68904456D01*
X152004939Y-69938337D01*
X151792804Y-70910215D01*
X151247030Y-71747058D01*
X150503565Y-72355999D01*
X149698354Y-72644170D01*
X148967344Y-72518704D01*
X148642631Y-72235185D01*
X148169177Y-71343527D01*
X148168609Y-70742016D01*
X148869136Y-70742016D01*
X149027253Y-71646429D01*
X149454216Y-72008079D01*
X150078943Y-71811252D01*
X150741803Y-71156032D01*
X151175276Y-70392516D01*
X151316692Y-69698166D01*
X151313328Y-69669729D01*
X151023426Y-69080934D01*
X150489998Y-68914793D01*
X149862944Y-69105543D01*
X149292159Y-69587425D01*
X148927542Y-70294676D01*
X148869136Y-70742016D01*
X148168609Y-70742016D01*
X148168270Y-70383588D01*
X148576650Y-69290993D01*
X149056381Y-68434769D01*
X149513065Y-68028194D01*
X150114459Y-67923486D01*
X150129032Y-67923456D01*
X151162117Y-68178130D01*
G37*
G36*
X142151466Y-68805740D02*
G01*
X142283199Y-68863794D01*
X143107809Y-69578656D01*
X143350178Y-70525254D01*
X143123677Y-71444073D01*
X142444746Y-72587817D01*
X141617169Y-73230139D01*
X140724992Y-73325861D01*
X140124889Y-73056093D01*
X139657673Y-72405971D01*
X139454574Y-71469224D01*
X139478446Y-71176382D01*
X140185347Y-71176382D01*
X140217086Y-71840925D01*
X140599465Y-72472919D01*
X141198361Y-72599066D01*
X141857299Y-72217709D01*
X142144118Y-71861339D01*
X142519650Y-70955245D01*
X142479559Y-70159652D01*
X142052399Y-69644135D01*
X141755004Y-69550540D01*
X141051011Y-69727652D01*
X140483759Y-70335177D01*
X140185347Y-71176382D01*
X139478446Y-71176382D01*
X139532069Y-70518575D01*
X139906635Y-69826748D01*
X139928647Y-69807803D01*
X140248007Y-69380856D01*
X140244394Y-69175697D01*
X140340995Y-68918650D01*
X140839633Y-68748576D01*
X141517420Y-68699573D01*
X142151466Y-68805740D01*
G37*
G36*
X147814692Y-67509113D02*
G01*
X147714715Y-68078561D01*
X147461374Y-68854707D01*
X147153493Y-70051555D01*
X146993871Y-71305332D01*
X146987655Y-71539697D01*
X146954078Y-72372319D01*
X146800962Y-72723958D01*
X146449729Y-72739452D01*
X146349894Y-72715247D01*
X145738887Y-72328625D01*
X145264918Y-71725469D01*
X144954126Y-71204598D01*
X144829467Y-71213798D01*
X144805148Y-71548090D01*
X144601313Y-72300253D01*
X144300143Y-72802411D01*
X143995868Y-73138297D01*
X143890144Y-73055756D01*
X143940539Y-72468374D01*
X143983111Y-72156790D01*
X144098991Y-70989113D01*
X144159610Y-69719814D01*
X144161982Y-69502557D01*
X144190202Y-68673394D01*
X144298545Y-68372969D01*
X144530856Y-68503909D01*
X144585605Y-68561816D01*
X144934346Y-69111019D01*
X145361183Y-70006684D01*
X145596464Y-70588888D01*
X146187150Y-72156790D01*
X146390137Y-70344725D01*
X146616402Y-69134569D01*
X146961524Y-68200966D01*
X147154310Y-67912555D01*
X147630613Y-67462133D01*
X147814692Y-67509113D01*
G37*
G36*
X138273672Y-65609896D02*
G01*
X138245953Y-66384070D01*
X138178083Y-66893150D01*
X137956757Y-68767312D01*
X137925814Y-70432360D01*
X138080153Y-71755323D01*
X138396183Y-72577665D01*
X138742636Y-73228605D01*
X138614571Y-73494136D01*
X138126401Y-73396800D01*
X137738669Y-73101932D01*
X137480981Y-72504852D01*
X137331640Y-71507303D01*
X137268948Y-70011031D01*
X137263976Y-69491357D01*
X137252722Y-67139506D01*
X136631601Y-67923456D01*
X136118218Y-68719455D01*
X135820628Y-69412962D01*
X135550983Y-70013528D01*
X135236983Y-69991366D01*
X134884230Y-69348918D01*
X134741167Y-68942592D01*
X134400910Y-67963213D01*
X134159148Y-67567065D01*
X133958566Y-67764514D01*
X133741849Y-68565924D01*
X133619913Y-69145363D01*
X133262046Y-70466879D01*
X132767869Y-71775730D01*
X132416754Y-72480605D01*
X131805366Y-73433334D01*
X131326565Y-74006602D01*
X131043984Y-74133581D01*
X130995062Y-73973739D01*
X131135389Y-73563828D01*
X131489488Y-72830369D01*
X131684918Y-72465726D01*
X132087528Y-71536306D01*
X132506629Y-70249688D01*
X132858010Y-68867697D01*
X132888229Y-68724410D01*
X133168558Y-67552099D01*
X133458747Y-66643506D01*
X133706900Y-66153713D01*
X133762229Y-66112590D01*
X134129634Y-66281007D01*
X134614962Y-66847474D01*
X134781228Y-67108409D01*
X135439684Y-68224409D01*
X136681482Y-66653416D01*
X137355765Y-65868028D01*
X137897722Y-65359084D01*
X138174116Y-65237448D01*
X138273672Y-65609896D01*
G37*
G36*
X150620547Y-73198742D02*
G01*
X150564918Y-73728235D01*
X150485828Y-74278576D01*
X150719243Y-74373714D01*
X150950919Y-74302224D01*
X151340094Y-74183221D01*
X151303947Y-74338337D01*
X150965376Y-74737918D01*
X150617031Y-75318739D01*
X150730190Y-75593547D01*
X151047770Y-76020211D01*
X151064198Y-76133445D01*
X150886911Y-76263263D01*
X150593828Y-76076543D01*
X150224333Y-75867352D01*
X150120189Y-76192872D01*
X150118656Y-76273332D01*
X150041374Y-76630333D01*
X149871154Y-76478534D01*
X149357336Y-76181229D01*
X148439823Y-76072635D01*
X147317606Y-76167966D01*
X146913160Y-76252358D01*
X146202060Y-76302428D01*
X145868257Y-75975843D01*
X145676878Y-75696136D01*
X145319109Y-75744883D01*
X144688431Y-76095650D01*
X143906263Y-76494066D01*
X143286287Y-76679524D01*
X143224692Y-76681308D01*
X143072208Y-76571390D01*
X143459877Y-76320980D01*
X143985572Y-75832597D01*
X144163950Y-75192652D01*
X144157700Y-75174198D01*
X144479013Y-75174198D01*
X144548200Y-75626856D01*
X144841001Y-75535847D01*
X144945931Y-75452248D01*
X145256269Y-75010583D01*
X145250553Y-74926748D01*
X146465021Y-74926748D01*
X146508066Y-75113171D01*
X146674075Y-75135802D01*
X146932187Y-75021068D01*
X146883128Y-74926748D01*
X146510982Y-74889219D01*
X146465021Y-74926748D01*
X145250553Y-74926748D01*
X145241004Y-74786691D01*
X144862491Y-74506976D01*
X144555403Y-74753703D01*
X144479013Y-75174198D01*
X144157700Y-75174198D01*
X143975568Y-74636467D01*
X143616667Y-74423373D01*
X143235447Y-74293900D01*
X143444862Y-74129147D01*
X143604677Y-74057852D01*
X144277375Y-74025224D01*
X145054603Y-74279123D01*
X145975877Y-74558552D01*
X146507926Y-74432367D01*
X147153378Y-74321283D01*
X147394173Y-74476147D01*
X147541529Y-74926161D01*
X147121907Y-75326348D01*
X146517285Y-75539359D01*
X146275184Y-75649917D01*
X146656602Y-75716009D01*
X146873195Y-75726587D01*
X147757649Y-75576352D01*
X147916440Y-75418751D01*
X148578545Y-75418751D01*
X148795574Y-75714187D01*
X149182717Y-75762962D01*
X149706806Y-75541228D01*
X149809877Y-75135802D01*
X149669484Y-74589863D01*
X149270900Y-74608601D01*
X148931853Y-74884938D01*
X148578545Y-75418751D01*
X147916440Y-75418751D01*
X148389331Y-74949402D01*
X148998223Y-74342371D01*
X149522927Y-74292885D01*
X149980891Y-74277213D01*
X150121821Y-73801763D01*
X150123457Y-73695333D01*
X150236692Y-73120248D01*
X150443012Y-72940740D01*
X150620547Y-73198742D01*
G37*
%TD*%
%LPC*%
D14*
%TO.C,S5*%
X189950000Y-87250000D03*
X196550000Y-87250000D03*
X189950000Y-90250000D03*
X196550000Y-90250000D03*
%TD*%
D15*
%TO.C,OLED1*%
X163450000Y-55000000D03*
D16*
X165990000Y-55000000D03*
X168530000Y-55000000D03*
X171070000Y-55000000D03*
%TD*%
D14*
%TO.C,S1*%
X137950000Y-83500000D03*
X144550000Y-83500000D03*
X137950000Y-86500000D03*
X144550000Y-86500000D03*
%TD*%
%TO.C,S8*%
X163950000Y-97500000D03*
X170550000Y-97500000D03*
X163950000Y-100500000D03*
X170550000Y-100500000D03*
%TD*%
%TO.C,S7*%
X163950000Y-85000000D03*
X170550000Y-85000000D03*
X163950000Y-88000000D03*
X170550000Y-88000000D03*
%TD*%
%TO.C,S4*%
X145200000Y-91000000D03*
X151800000Y-91000000D03*
X145200000Y-94000000D03*
X151800000Y-94000000D03*
%TD*%
%TO.C,S3*%
X130700000Y-91000000D03*
X137300000Y-91000000D03*
X130700000Y-94000000D03*
X137300000Y-94000000D03*
%TD*%
%TO.C,S2*%
X137950000Y-98500000D03*
X144550000Y-98500000D03*
X137950000Y-101500000D03*
X144550000Y-101500000D03*
%TD*%
%TO.C,S6*%
X182700000Y-94750000D03*
X189300000Y-94750000D03*
X182700000Y-97750000D03*
X189300000Y-97750000D03*
%TD*%
D17*
%TO.C,U1*%
X197350000Y-102650000D03*
X183350000Y-102650000D03*
X197350000Y-79650000D03*
X183350000Y-79650000D03*
X194810000Y-79650000D03*
X185890000Y-79650000D03*
%TD*%
D18*
%TO.C,PWR1*%
X184489500Y-65509250D03*
D19*
X184489500Y-58509250D03*
%TD*%
D20*
%TO.C,BAT1*%
X140500000Y-61550000D03*
D21*
X142500000Y-61550000D03*
%TD*%
D15*
%TO.C,J2*%
X176950000Y-54890000D03*
D16*
X176950000Y-57430000D03*
X176950000Y-59970000D03*
X176950000Y-62510000D03*
X176950000Y-65050000D03*
X176950000Y-67590000D03*
X176950000Y-70130000D03*
X176950000Y-72670000D03*
X176950000Y-75210000D03*
X176950000Y-77750000D03*
X176950000Y-80290000D03*
X176950000Y-82830000D03*
X176950000Y-85370000D03*
X176950000Y-87910000D03*
X176950000Y-90450000D03*
X176950000Y-92990000D03*
X176950000Y-95530000D03*
X176950000Y-98070000D03*
X176950000Y-100610000D03*
X176950000Y-103150000D03*
%TD*%
D15*
%TO.C,J1*%
X157500000Y-103100000D03*
D16*
X157500000Y-100560000D03*
X157500000Y-98020000D03*
X157500000Y-95480000D03*
X157500000Y-92940000D03*
X157500000Y-90400000D03*
X157500000Y-87860000D03*
X157500000Y-85320000D03*
X157500000Y-82780000D03*
X157500000Y-80240000D03*
X157500000Y-77700000D03*
X157500000Y-75160000D03*
X157500000Y-72620000D03*
X157500000Y-70080000D03*
X157500000Y-67540000D03*
X157500000Y-65000000D03*
X157500000Y-62460000D03*
X157500000Y-59920000D03*
X157500000Y-57380000D03*
X157500000Y-54840000D03*
%TD*%
%LPD*%
M02*
