M48
; DRILL file {KiCad 9.0.7-9.0.7~ubuntu22.04.1} date 2026-04-10T14:23:28+0530
; FORMAT={-:-/ absolute / metric / decimal}
; #@! TF.CreationDate,2026-04-10T14:23:28+05:30
; #@! TF.GenerationSoftware,Kicad,Pcbnew,9.0.7-9.0.7~ubuntu22.04.1
; #@! TF.FileFunction,Plated,1,2,PTH
FMAT,2
METRIC
; #@! TA.AperFunction,Plated,PTH,ComponentDrill
T1C0.750
; #@! TA.AperFunction,Plated,PTH,ComponentDrill
T2C1.000
; #@! TA.AperFunction,Plated,PTH,ComponentDrill
T3C1.850
%
G90
G05
T1
X140.5Y-61.55
X142.5Y-61.55
T2
X157.5Y-54.84
X157.5Y-57.38
X157.5Y-59.92
X157.5Y-62.46
X157.5Y-65.0
X157.5Y-67.54
X157.5Y-70.08
X157.5Y-72.62
X157.5Y-75.16
X157.5Y-77.7
X157.5Y-80.24
X157.5Y-82.78
X157.5Y-85.32
X157.5Y-87.86
X157.5Y-90.4
X157.5Y-92.94
X157.5Y-95.48
X157.5Y-98.02
X157.5Y-100.56
X157.5Y-103.1
X163.45Y-55.0
X165.99Y-55.0
X168.53Y-55.0
X171.07Y-55.0
X176.95Y-54.89
X176.95Y-57.43
X176.95Y-59.97
X176.95Y-62.51
X176.95Y-65.05
X176.95Y-67.59
X176.95Y-70.13
X176.95Y-72.67
X176.95Y-75.21
X176.95Y-77.75
X176.95Y-80.29
X176.95Y-82.83
X176.95Y-85.37
X176.95Y-87.91
X176.95Y-90.45
X176.95Y-92.99
X176.95Y-95.53
X176.95Y-98.07
X176.95Y-100.61
X176.95Y-103.15
X183.35Y-79.65
X183.35Y-102.65
X185.89Y-79.65
X194.81Y-79.65
X197.35Y-79.65
X197.35Y-102.65
T3
X184.489Y-58.509
X184.489Y-65.509
M30
