%TF.GenerationSoftware,KiCad,Pcbnew,9.0.7-9.0.7~ubuntu22.04.1*%
%TF.CreationDate,2026-04-10T14:26:46+05:30*%
%TF.ProjectId,monodeck,6d6f6e6f-6465-4636-9b2e-6b696361645f,rev?*%
%TF.SameCoordinates,Original*%
%TF.FileFunction,Legend,Bot*%
%TF.FilePolarity,Positive*%
%FSLAX46Y46*%
G04 Gerber Fmt 4.6, Leading zero omitted, Abs format (unit mm)*
G04 Created by KiCad (PCBNEW 9.0.7-9.0.7~ubuntu22.04.1) date 2026-04-10 14:26:46*
%MOMM*%
%LPD*%
G01*
G04 APERTURE LIST*
G04 Aperture macros list*
%AMRoundRect*
0 Rectangle with rounded corners*
0 $1 Rounding radius*
0 $2 $3 $4 $5 $6 $7 $8 $9 X,Y pos of 4 corners*
0 Add a 4 corners polygon primitive as box body*
4,1,4,$2,$3,$4,$5,$6,$7,$8,$9,$2,$3,0*
0 Add four circle primitives for the rounded corners*
1,1,$1+$1,$2,$3*
1,1,$1+$1,$4,$5*
1,1,$1+$1,$6,$7*
1,1,$1+$1,$8,$9*
0 Add four rect primitives between the rounded corners*
20,1,$1+$1,$2,$3,$4,$5,0*
20,1,$1+$1,$4,$5,$6,$7,0*
20,1,$1+$1,$6,$7,$8,$9,0*
20,1,$1+$1,$8,$9,$2,$3,0*%
G04 Aperture macros list end*
%ADD10C,0.150000*%
%ADD11C,0.100000*%
%ADD12C,0.127000*%
%ADD13C,0.200000*%
%ADD14C,0.120000*%
%ADD15R,1.700000X1.700000*%
%ADD16C,1.700000*%
%ADD17C,2.000000*%
%ADD18RoundRect,0.102000X-1.387500X1.387500X-1.387500X-1.387500X1.387500X-1.387500X1.387500X1.387500X0*%
%ADD19C,2.979000*%
%ADD20RoundRect,0.250000X-0.350000X-0.625000X0.350000X-0.625000X0.350000X0.625000X-0.350000X0.625000X0*%
%ADD21O,1.200000X1.750000*%
G04 APERTURE END LIST*
D10*
X192939180Y-91941904D02*
X192129657Y-91941904D01*
X192129657Y-91941904D02*
X192034419Y-91894285D01*
X192034419Y-91894285D02*
X191986800Y-91846666D01*
X191986800Y-91846666D02*
X191939180Y-91751428D01*
X191939180Y-91751428D02*
X191939180Y-91560952D01*
X191939180Y-91560952D02*
X191986800Y-91465714D01*
X191986800Y-91465714D02*
X192034419Y-91418095D01*
X192034419Y-91418095D02*
X192129657Y-91370476D01*
X192129657Y-91370476D02*
X192939180Y-91370476D01*
X191939180Y-90370476D02*
X191939180Y-90941904D01*
X191939180Y-90656190D02*
X192939180Y-90656190D01*
X192939180Y-90656190D02*
X192796323Y-90751428D01*
X192796323Y-90751428D02*
X192701085Y-90846666D01*
X192701085Y-90846666D02*
X192653466Y-90941904D01*
X195629366Y-62475917D02*
X194229366Y-62475917D01*
X194229366Y-62475917D02*
X194229366Y-63009250D01*
X194229366Y-63009250D02*
X194296033Y-63142584D01*
X194296033Y-63142584D02*
X194362700Y-63209250D01*
X194362700Y-63209250D02*
X194496033Y-63275917D01*
X194496033Y-63275917D02*
X194696033Y-63275917D01*
X194696033Y-63275917D02*
X194829366Y-63209250D01*
X194829366Y-63209250D02*
X194896033Y-63142584D01*
X194896033Y-63142584D02*
X194962700Y-63009250D01*
X194962700Y-63009250D02*
X194962700Y-62475917D01*
X194229366Y-63742584D02*
X195629366Y-64075917D01*
X195629366Y-64075917D02*
X194629366Y-64342584D01*
X194629366Y-64342584D02*
X195629366Y-64609250D01*
X195629366Y-64609250D02*
X194229366Y-64942584D01*
X195629366Y-66275917D02*
X194962700Y-65809250D01*
X195629366Y-65475917D02*
X194229366Y-65475917D01*
X194229366Y-65475917D02*
X194229366Y-66009250D01*
X194229366Y-66009250D02*
X194296033Y-66142584D01*
X194296033Y-66142584D02*
X194362700Y-66209250D01*
X194362700Y-66209250D02*
X194496033Y-66275917D01*
X194496033Y-66275917D02*
X194696033Y-66275917D01*
X194696033Y-66275917D02*
X194829366Y-66209250D01*
X194829366Y-66209250D02*
X194896033Y-66142584D01*
X194896033Y-66142584D02*
X194962700Y-66009250D01*
X194962700Y-66009250D02*
X194962700Y-65475917D01*
X195629366Y-67609250D02*
X195629366Y-66809250D01*
X195629366Y-67209250D02*
X194229366Y-67209250D01*
X194229366Y-67209250D02*
X194429366Y-67075917D01*
X194429366Y-67075917D02*
X194562700Y-66942584D01*
X194562700Y-66942584D02*
X194629366Y-66809250D01*
X142714285Y-64381009D02*
X142571428Y-64428628D01*
X142571428Y-64428628D02*
X142523809Y-64476247D01*
X142523809Y-64476247D02*
X142476190Y-64571485D01*
X142476190Y-64571485D02*
X142476190Y-64714342D01*
X142476190Y-64714342D02*
X142523809Y-64809580D01*
X142523809Y-64809580D02*
X142571428Y-64857200D01*
X142571428Y-64857200D02*
X142666666Y-64904819D01*
X142666666Y-64904819D02*
X143047618Y-64904819D01*
X143047618Y-64904819D02*
X143047618Y-63904819D01*
X143047618Y-63904819D02*
X142714285Y-63904819D01*
X142714285Y-63904819D02*
X142619047Y-63952438D01*
X142619047Y-63952438D02*
X142571428Y-64000057D01*
X142571428Y-64000057D02*
X142523809Y-64095295D01*
X142523809Y-64095295D02*
X142523809Y-64190533D01*
X142523809Y-64190533D02*
X142571428Y-64285771D01*
X142571428Y-64285771D02*
X142619047Y-64333390D01*
X142619047Y-64333390D02*
X142714285Y-64381009D01*
X142714285Y-64381009D02*
X143047618Y-64381009D01*
X142095237Y-64619104D02*
X141619047Y-64619104D01*
X142190475Y-64904819D02*
X141857142Y-63904819D01*
X141857142Y-63904819D02*
X141523809Y-64904819D01*
X141333332Y-63904819D02*
X140761904Y-63904819D01*
X141047618Y-64904819D02*
X141047618Y-63904819D01*
X139904761Y-64904819D02*
X140476189Y-64904819D01*
X140190475Y-64904819D02*
X140190475Y-63904819D01*
X140190475Y-63904819D02*
X140285713Y-64047676D01*
X140285713Y-64047676D02*
X140380951Y-64142914D01*
X140380951Y-64142914D02*
X140476189Y-64190533D01*
X177283333Y-51574819D02*
X177283333Y-52289104D01*
X177283333Y-52289104D02*
X177330952Y-52431961D01*
X177330952Y-52431961D02*
X177426190Y-52527200D01*
X177426190Y-52527200D02*
X177569047Y-52574819D01*
X177569047Y-52574819D02*
X177664285Y-52574819D01*
X176854761Y-51670057D02*
X176807142Y-51622438D01*
X176807142Y-51622438D02*
X176711904Y-51574819D01*
X176711904Y-51574819D02*
X176473809Y-51574819D01*
X176473809Y-51574819D02*
X176378571Y-51622438D01*
X176378571Y-51622438D02*
X176330952Y-51670057D01*
X176330952Y-51670057D02*
X176283333Y-51765295D01*
X176283333Y-51765295D02*
X176283333Y-51860533D01*
X176283333Y-51860533D02*
X176330952Y-52003390D01*
X176330952Y-52003390D02*
X176902380Y-52574819D01*
X176902380Y-52574819D02*
X176283333Y-52574819D01*
X159748819Y-103274666D02*
X160463104Y-103274666D01*
X160463104Y-103274666D02*
X160605961Y-103227047D01*
X160605961Y-103227047D02*
X160701200Y-103131809D01*
X160701200Y-103131809D02*
X160748819Y-102988952D01*
X160748819Y-102988952D02*
X160748819Y-102893714D01*
X160748819Y-104274666D02*
X160748819Y-103703238D01*
X160748819Y-103988952D02*
X159748819Y-103988952D01*
X159748819Y-103988952D02*
X159891676Y-103893714D01*
X159891676Y-103893714D02*
X159986914Y-103798476D01*
X159986914Y-103798476D02*
X160034533Y-103703238D01*
D11*
%TO.C,U1*%
X181750000Y-105150000D02*
X181750000Y-77150000D01*
X198950000Y-77150000D02*
X181750000Y-77150000D01*
X198950000Y-105150000D02*
X181750000Y-105150000D01*
X198950000Y-105150000D02*
X198950000Y-77150000D01*
D12*
%TO.C,PWR1*%
X186889500Y-55109250D02*
X186889500Y-75909250D01*
X186889500Y-55109250D02*
X200889500Y-55109250D01*
X200889500Y-55109250D02*
X200889500Y-75909250D01*
X200889500Y-75909250D02*
X186889500Y-75909250D01*
D13*
X182335500Y-65367250D02*
G75*
G02*
X182135500Y-65367250I-100000J0D01*
G01*
X182135500Y-65367250D02*
G75*
G02*
X182335500Y-65367250I100000J0D01*
G01*
D14*
%TO.C,BAT1*%
X138140000Y-63660000D02*
X138140000Y-62410000D01*
X138440000Y-60750000D02*
X139050000Y-60750000D01*
X138440000Y-62050000D02*
X139050000Y-62050000D01*
X139050000Y-59250000D02*
X143950000Y-59250000D01*
X139050000Y-62750000D02*
X139050000Y-59250000D01*
X139390000Y-63660000D02*
X138140000Y-63660000D01*
X139900000Y-63560000D02*
X139900000Y-63360000D01*
X140200000Y-63360000D02*
X140200000Y-63560000D01*
X140200000Y-63460000D02*
X139900000Y-63460000D01*
X140200000Y-63560000D02*
X139900000Y-63560000D01*
X141000000Y-62750000D02*
X139050000Y-62750000D01*
X141000000Y-63360000D02*
X141000000Y-62750000D01*
X141400000Y-59250000D02*
X141400000Y-59750000D01*
X141400000Y-59750000D02*
X141600000Y-59750000D01*
X141500000Y-59250000D02*
X141500000Y-59750000D01*
X141600000Y-59750000D02*
X141600000Y-59250000D01*
X142000000Y-62750000D02*
X142000000Y-63360000D01*
X143950000Y-59250000D02*
X143950000Y-62750000D01*
X143950000Y-62750000D02*
X142000000Y-62750000D01*
X144560000Y-60750000D02*
X143950000Y-60750000D01*
X144560000Y-62050000D02*
X143950000Y-62050000D01*
X138440000Y-63360000D02*
X144560000Y-63360000D01*
X144560000Y-58640000D01*
X138440000Y-58640000D01*
X138440000Y-63360000D01*
%TO.C,J2*%
X175620000Y-53560000D02*
X175620000Y-54890000D01*
X175620000Y-56160000D02*
X175620000Y-104480000D01*
X176950000Y-53560000D02*
X175620000Y-53560000D01*
X178280000Y-56160000D02*
X175620000Y-56160000D01*
X178280000Y-56160000D02*
X178280000Y-104480000D01*
X178280000Y-104480000D02*
X175620000Y-104480000D01*
%TO.C,J1*%
X156170000Y-53510000D02*
X158830000Y-53510000D01*
X156170000Y-101830000D02*
X156170000Y-53510000D01*
X156170000Y-101830000D02*
X158830000Y-101830000D01*
X157500000Y-104430000D02*
X158830000Y-104430000D01*
X158830000Y-101830000D02*
X158830000Y-53510000D01*
X158830000Y-104430000D02*
X158830000Y-103100000D01*
%TD*%
%LPC*%
D15*
%TO.C,OLED1*%
X163450000Y-55000000D03*
D16*
X165990000Y-55000000D03*
X168530000Y-55000000D03*
X171070000Y-55000000D03*
%TD*%
D17*
%TO.C,U1*%
X197350000Y-102650000D03*
X183350000Y-102650000D03*
X197350000Y-79650000D03*
X183350000Y-79650000D03*
X194810000Y-79650000D03*
X185890000Y-79650000D03*
%TD*%
D18*
%TO.C,PWR1*%
X184489500Y-65509250D03*
D19*
X184489500Y-58509250D03*
%TD*%
D20*
%TO.C,BAT1*%
X140500000Y-61550000D03*
D21*
X142500000Y-61550000D03*
%TD*%
D15*
%TO.C,J2*%
X176950000Y-54890000D03*
D16*
X176950000Y-57430000D03*
X176950000Y-59970000D03*
X176950000Y-62510000D03*
X176950000Y-65050000D03*
X176950000Y-67590000D03*
X176950000Y-70130000D03*
X176950000Y-72670000D03*
X176950000Y-75210000D03*
X176950000Y-77750000D03*
X176950000Y-80290000D03*
X176950000Y-82830000D03*
X176950000Y-85370000D03*
X176950000Y-87910000D03*
X176950000Y-90450000D03*
X176950000Y-92990000D03*
X176950000Y-95530000D03*
X176950000Y-98070000D03*
X176950000Y-100610000D03*
X176950000Y-103150000D03*
%TD*%
D15*
%TO.C,J1*%
X157500000Y-103100000D03*
D16*
X157500000Y-100560000D03*
X157500000Y-98020000D03*
X157500000Y-95480000D03*
X157500000Y-92940000D03*
X157500000Y-90400000D03*
X157500000Y-87860000D03*
X157500000Y-85320000D03*
X157500000Y-82780000D03*
X157500000Y-80240000D03*
X157500000Y-77700000D03*
X157500000Y-75160000D03*
X157500000Y-72620000D03*
X157500000Y-70080000D03*
X157500000Y-67540000D03*
X157500000Y-65000000D03*
X157500000Y-62460000D03*
X157500000Y-59920000D03*
X157500000Y-57380000D03*
X157500000Y-54840000D03*
%TD*%
%LPD*%
M02*
